# XSI Wavefront OBJ Export v3.0
# File Created: Wed Jul 22 13:12:08 2015
# XSI Version: 10.0.422.0
mtllib 3_Mines.mtl

o Mines_3
# Hierarchy (from self to top father)
g Mines_3

#begin 72 vertices
v -7.487240 2.396610 2.128560
v -9.569147 0.973521 0.095303
v -7.487240 2.930207 2.128560
v -8.680440 2.143978 2.128560
v -7.487240 2.396610 1.634718
v -8.358473 1.718463 1.634718
v -7.487240 2.930207 1.634718
v -8.680440 2.143978 1.634718
v -8.358473 1.718463 2.128560
v -9.690779 1.554962 1.325059
v -9.031852 1.458581 0.996569
v -9.383492 1.857826 1.034486
v -9.339139 1.155717 1.287143
v -9.613500 1.675631 0.095385
v -9.261861 1.276385 0.095398
v -9.920787 1.372767 0.095291
v -7.487240 2.396610 -2.101658
v -9.339139 1.155717 -1.192506
v -7.487240 2.930207 -2.101658
v -8.680440 2.143978 -2.101658
v -7.487240 2.396610 -1.568061
v -8.358473 1.718463 -1.568061
v -7.487240 2.930207 -1.568061
v -8.680440 2.143978 -1.568061
v -8.358473 1.718463 -2.101658
v -9.690779 1.554962 -1.233475
v -9.031852 1.458581 -0.878541
v -9.383492 1.857826 -0.919510
v -4.384811 4.314937 5.124602
v 4.384811 4.314937 5.124602
v -7.603665 4.314937 -5.124602
v 7.603665 0.001776 -5.124602
v -4.384811 3.628854 -5.124602
v -7.603665 0.001776 5.124602
v -7.603665 0.001776 -5.124602
v 7.603665 4.314937 5.124602
v 4.384811 3.628854 -5.124602
v -4.384811 4.314937 -5.124602
v -7.603665 4.314937 5.124602
v -4.384811 3.628854 5.124602
v 4.384811 3.628854 5.124602
v 4.384811 4.314937 -5.124602
v 7.603665 0.001776 5.124602
v 7.603665 4.314937 -5.124602
v 7.487240 2.396610 2.128560
v 9.569147 0.973521 0.095303
v 7.487240 2.930207 2.128560
v 8.680440 2.143978 2.128560
v 7.487240 2.396610 1.634718
v 8.358473 1.718463 1.634718
v 7.487240 2.930207 1.634718
v 8.680440 2.143978 1.634718
v 8.358473 1.718463 2.128560
v 9.690779 1.554962 1.325059
v 9.031852 1.458581 0.996569
v 9.383492 1.857826 1.034486
v 9.339139 1.155717 1.287143
v 9.613500 1.675631 0.095385
v 9.261861 1.276385 0.095398
v 9.920787 1.372767 0.095291
v 7.487240 2.396610 -2.101658
v 9.339139 1.155717 -1.192506
v 7.487240 2.930207 -2.101658
v 8.680440 2.143978 -2.101658
v 7.487240 2.396610 -1.568061
v 8.358473 1.718463 -1.568061
v 7.487240 2.930207 -1.568061
v 8.680440 2.143978 -1.568061
v 8.358473 1.718463 -2.101658
v 9.690779 1.554962 -1.233475
v 9.031852 1.458581 -0.878541
v 9.383492 1.857826 -0.919510
#end 72 vertices

#begin 248 normals
vn -0.000000 0.000000 1.000000
vn -0.000000 0.000000 1.000000
vn -0.230575 -0.207838 0.950599
vn -0.230575 -0.207838 0.950599
vn 0.614235 -0.789123 0.000000
vn 0.571717 -0.818266 -0.059838
vn 0.571717 -0.818266 -0.059838
vn 0.614235 -0.789123 0.000000
vn 0.000000 0.000000 -1.000000
vn 0.266122 0.235726 -0.934672
vn 0.266122 0.235726 -0.934672
vn 0.000000 0.000000 -1.000000
vn 0.695292 -0.718727 -0.001033
vn 0.695292 -0.718727 -0.001033
vn 0.614370 -0.785542 -0.073977
vn 0.614370 -0.785542 -0.073977
vn -0.550217 0.835022 0.000000
vn -0.550217 0.835022 0.000000
vn -0.539575 0.839842 0.059363
vn -0.539575 0.839842 0.059363
vn -0.230575 -0.207838 0.950599
vn -0.230575 -0.207838 0.950599
vn -0.618853 -0.555820 0.555055
vn -0.618853 -0.555820 0.555055
vn -0.539575 0.839842 0.059363
vn -0.539575 0.839842 0.059363
vn -0.615116 0.785038 0.073125
vn -0.615116 0.785038 0.073125
vn 0.266122 0.235726 -0.934672
vn 0.266122 0.235726 -0.934672
vn 0.624983 0.559220 -0.544674
vn 0.624983 0.559220 -0.544674
vn 0.571717 -0.818266 -0.059838
vn 0.571717 -0.818266 -0.059838
vn 0.614370 -0.785542 -0.073977
vn 0.614370 -0.785542 -0.073977
vn -0.618853 -0.555820 0.555055
vn -0.618853 -0.555820 0.555055
vn -0.744678 -0.667369 0.008548
vn -0.744678 -0.667369 0.008548
vn -0.615116 0.785038 0.073125
vn -0.615116 0.785038 0.073125
vn -0.695507 0.718519 0.000999
vn -0.695507 0.718519 0.000999
vn 0.624983 0.559220 -0.544674
vn 0.624983 0.559220 -0.544674
vn 0.742844 0.669377 -0.010866
vn 0.742844 0.669377 -0.010866
vn 0.000000 -0.000000 -1.000000
vn 0.000000 -0.000000 -1.000000
vn -0.243699 -0.219668 -0.944646
vn -0.243699 -0.219668 -0.944646
vn 0.614235 -0.789123 0.000000
vn 0.571841 -0.818490 0.055423
vn 0.571841 -0.818490 0.055423
vn 0.614235 -0.789123 0.000000
vn 0.000000 0.000000 1.000000
vn 0.279569 0.247637 0.927641
vn 0.279569 0.247637 0.927641
vn 0.000000 0.000000 1.000000
vn 0.695292 -0.718727 -0.001033
vn 0.695292 -0.718727 -0.001033
vn 0.614569 -0.785883 0.068511
vn 0.614569 -0.785883 0.068511
vn -0.550217 0.835022 0.000000
vn -0.550217 0.835022 0.000000
vn -0.539706 0.840057 -0.054982
vn -0.539706 0.840057 -0.054982
vn -0.243699 -0.219668 -0.944646
vn -0.243699 -0.219668 -0.944646
vn -0.629833 -0.565720 -0.532233
vn -0.629833 -0.565720 -0.532233
vn -0.539706 0.840057 -0.054982
vn -0.539706 0.840057 -0.054982
vn -0.615310 0.785371 -0.067722
vn -0.615310 0.785371 -0.067722
vn 0.279569 0.247637 0.927641
vn 0.279569 0.247637 0.927641
vn 0.636978 0.569873 0.519138
vn 0.636978 0.569873 0.519138
vn 0.571841 -0.818490 0.055423
vn 0.571841 -0.818490 0.055423
vn 0.614569 -0.785883 0.068511
vn 0.614569 -0.785883 0.068511
vn -0.629833 -0.565720 -0.532233
vn -0.629833 -0.565720 -0.532233
vn -0.744678 -0.667369 0.008548
vn -0.744678 -0.667369 0.008548
vn -0.615310 0.785371 -0.067722
vn -0.615310 0.785371 -0.067722
vn -0.695507 0.718519 0.000999
vn -0.695507 0.718519 0.000999
vn 0.636978 0.569873 0.519138
vn 0.636978 0.569873 0.519138
vn 0.742844 0.669377 -0.010866
vn 0.742844 0.669377 -0.010866
vn 0.000000 0.000000 1.000000
vn 0.000000 -1.000000 -0.000000
vn 0.000000 0.000000 1.000000
vn 0.000000 1.000000 -0.000000
vn 0.000000 -1.000000 -0.000000
vn 0.000000 1.000000 -0.000000
vn 0.000000 0.000000 1.000000
vn 0.000000 0.000000 -1.000000
vn 0.000000 1.000000 0.000000
vn 0.000000 0.000000 1.000000
vn 0.000000 1.000000 -0.000000
vn 0.000000 0.000000 -1.000000
vn 0.000000 1.000000 -0.000000
vn 0.000000 1.000000 -0.000000
vn 0.000000 0.000000 -1.000000
vn 0.000000 0.000000 -1.000000
vn 0.000000 1.000000 0.000000
vn 0.000000 1.000000 0.000000
vn 0.000000 1.000000 -0.000000
vn 0.000000 1.000000 -0.000000
vn 0.000000 1.000000 0.000000
vn 0.000000 -1.000000 -0.000000
vn 0.000000 -1.000000 -0.000000
vn 0.000000 1.000000 -0.000000
vn 0.000000 0.000000 -1.000000
vn 0.000000 0.000000 -1.000000
vn 0.000000 0.000000 -1.000000
vn 0.000000 0.000000 -1.000000
vn 1.000000 0.000000 -0.000000
vn 1.000000 0.000000 -0.000000
vn 1.000000 0.000000 -0.000000
vn 1.000000 0.000000 -0.000000
vn 0.000000 0.000000 1.000000
vn 0.000000 0.000000 1.000000
vn 0.000000 0.000000 1.000000
vn 0.000000 0.000000 1.000000
vn -1.000000 0.000000 -0.000000
vn -1.000000 0.000000 -0.000000
vn -1.000000 0.000000 -0.000000
vn -1.000000 0.000000 -0.000000
vn 0.000000 0.000000 1.000000
vn 0.000000 0.000000 1.000000
vn 0.000000 0.000000 1.000000
vn 0.000000 0.000000 1.000000
vn -1.000000 0.000000 -0.000000
vn -1.000000 0.000000 -0.000000
vn -1.000000 0.000000 -0.000000
vn -1.000000 0.000000 -0.000000
vn 0.000000 0.000000 -1.000000
vn 0.000000 0.000000 -1.000000
vn 0.000000 0.000000 -1.000000
vn 0.000000 0.000000 -1.000000
vn 1.000000 0.000000 -0.000000
vn 1.000000 0.000000 -0.000000
vn 1.000000 0.000000 -0.000000
vn 1.000000 0.000000 -0.000000
vn 0.000000 0.000000 1.000000
vn 0.000000 0.000000 1.000000
vn 0.230575 -0.207838 0.950599
vn 0.230575 -0.207838 0.950599
vn -0.614235 -0.789123 0.000000
vn -0.571717 -0.818266 -0.059838
vn -0.571717 -0.818266 -0.059838
vn -0.614235 -0.789123 0.000000
vn 0.000000 0.000000 -1.000000
vn -0.266122 0.235726 -0.934672
vn -0.266122 0.235726 -0.934672
vn 0.000000 0.000000 -1.000000
vn -0.695292 -0.718727 -0.001033
vn -0.695292 -0.718727 -0.001033
vn -0.614370 -0.785542 -0.073977
vn -0.614370 -0.785542 -0.073977
vn 0.550217 0.835022 0.000000
vn 0.550217 0.835022 0.000000
vn 0.539575 0.839842 0.059363
vn 0.539575 0.839842 0.059363
vn 0.230575 -0.207838 0.950599
vn 0.230575 -0.207838 0.950599
vn 0.618853 -0.555820 0.555055
vn 0.618853 -0.555820 0.555055
vn 0.539575 0.839842 0.059363
vn 0.539575 0.839842 0.059363
vn 0.615116 0.785038 0.073125
vn 0.615116 0.785038 0.073125
vn -0.266122 0.235726 -0.934672
vn -0.266122 0.235726 -0.934672
vn -0.624983 0.559220 -0.544674
vn -0.624983 0.559220 -0.544674
vn -0.571717 -0.818266 -0.059838
vn -0.571717 -0.818266 -0.059838
vn -0.614370 -0.785542 -0.073977
vn -0.614370 -0.785542 -0.073977
vn 0.618853 -0.555820 0.555055
vn 0.618853 -0.555820 0.555055
vn 0.744678 -0.667369 0.008548
vn 0.744678 -0.667369 0.008548
vn 0.615116 0.785038 0.073125
vn 0.615116 0.785038 0.073125
vn 0.695507 0.718519 0.000999
vn 0.695507 0.718519 0.000999
vn -0.624983 0.559220 -0.544674
vn -0.624983 0.559220 -0.544674
vn -0.742844 0.669377 -0.010866
vn -0.742844 0.669377 -0.010866
vn -0.000000 -0.000000 -1.000000
vn -0.000000 -0.000000 -1.000000
vn 0.243699 -0.219668 -0.944646
vn 0.243699 -0.219668 -0.944646
vn -0.614235 -0.789123 0.000000
vn -0.571841 -0.818490 0.055423
vn -0.571841 -0.818490 0.055423
vn -0.614235 -0.789123 0.000000
vn 0.000000 0.000000 1.000000
vn -0.279569 0.247637 0.927641
vn -0.279569 0.247637 0.927641
vn 0.000000 0.000000 1.000000
vn -0.695292 -0.718727 -0.001033
vn -0.695292 -0.718727 -0.001033
vn -0.614569 -0.785883 0.068511
vn -0.614569 -0.785883 0.068511
vn 0.550217 0.835022 0.000000
vn 0.550217 0.835022 0.000000
vn 0.539706 0.840057 -0.054982
vn 0.539706 0.840057 -0.054982
vn 0.243699 -0.219668 -0.944646
vn 0.243699 -0.219668 -0.944646
vn 0.629833 -0.565720 -0.532233
vn 0.629833 -0.565720 -0.532233
vn 0.539706 0.840057 -0.054982
vn 0.539706 0.840057 -0.054982
vn 0.615310 0.785371 -0.067722
vn 0.615310 0.785371 -0.067722
vn -0.279569 0.247637 0.927641
vn -0.279569 0.247637 0.927641
vn -0.636978 0.569873 0.519138
vn -0.636978 0.569873 0.519138
vn -0.571841 -0.818490 0.055423
vn -0.571841 -0.818490 0.055423
vn -0.614569 -0.785883 0.068511
vn -0.614569 -0.785883 0.068511
vn 0.629833 -0.565720 -0.532233
vn 0.629833 -0.565720 -0.532233
vn 0.744678 -0.667369 0.008548
vn 0.744678 -0.667369 0.008548
vn 0.615310 0.785371 -0.067722
vn 0.615310 0.785371 -0.067722
vn 0.695507 0.718519 0.000999
vn 0.695507 0.718519 0.000999
vn -0.636978 0.569873 0.519138
vn -0.636978 0.569873 0.519138
vn -0.742844 0.669377 -0.010866
vn -0.742844 0.669377 -0.010866
#end 248 vertex normals

#begin texture vertices
vt 0.031135 0.787370 0.000000
vt 0.031136 0.716645 0.000000
vt 0.040650 0.787370 0.000000
vt 0.040652 0.761780 0.000000
vt 0.021339 0.787370 0.000000
vt 0.021339 0.761780 0.000000
vt 0.011454 0.787370 0.000000
vt 0.050414 0.787370 0.000000
vt 0.050414 0.761780 0.000000
vt 0.011454 0.761780 0.000000
vt 0.031136 0.761780 0.000000
vt 0.040654 0.738090 0.000000
vt 0.021339 0.738090 0.000000
vt 0.050414 0.738091 0.000000
vt 0.011454 0.738087 0.000000
vt 0.031136 0.738090 0.000000
vt 0.011454 0.716644 0.000000
vt 0.050414 0.716645 0.000000
vt 0.021339 0.716645 0.000000
vt 0.040655 0.716645 0.000000
vt 0.031138 0.642787 0.000000
vt 0.031137 0.693487 0.000000
vt 0.040664 0.642801 0.000000
vt 0.040660 0.669312 0.000000
vt 0.021339 0.642786 0.000000
vt 0.021338 0.669313 0.000000
vt 0.050415 0.642798 0.000000
vt 0.011453 0.642801 0.000000
vt 0.011453 0.669313 0.000000
vt 0.050415 0.669313 0.000000
vt 0.031138 0.669312 0.000000
vt 0.040657 0.693480 0.000000
vt 0.021339 0.693485 0.000000
vt 0.011454 0.693483 0.000000
vt 0.050415 0.693468 0.000000
vt 0.102970 0.804462 0.000000
vt 0.102886 0.804462 0.000000
vt 0.223543 0.804462 0.000000
vt 0.223233 0.804462 0.000000
vt 0.058714 0.933114 0.000000
vt 0.058483 0.933114 0.000000
vt 0.267923 0.604272 0.000000
vt 0.267799 0.992725 0.000000
vt 0.321547 0.933114 0.000000
vt 0.108216 0.933114 0.000000
vt 0.102970 0.942596 0.000000
vt 0.058714 0.745272 0.000000
vt 0.004573 0.804462 0.000000
vt 0.058714 0.604272 0.000000
vt 0.004573 0.933114 0.000000
vt 0.058483 0.992725 0.000000
vt 0.267406 0.804462 0.000000
vt 0.223313 0.942596 0.000000
vt 0.218297 0.933114 0.000000
vt 0.102970 0.933114 0.000000
vt 0.058714 0.804462 0.000000
vt 0.102886 0.795047 0.000000
vt 0.108216 0.804462 0.000000
vt 0.218297 0.804462 0.000000
vt 0.223233 0.795047 0.000000
vt 0.223543 0.933114 0.000000
vt 0.223313 0.933114 0.000000
vt 0.267923 0.745272 0.000000
vt 0.321547 0.804462 0.000000
vt 0.267799 0.933114 0.000000
vt 0.267406 0.933114 0.000000
vt 0.031135 0.787370 0.000000
vt 0.031136 0.716645 0.000000
vt 0.040650 0.787370 0.000000
vt 0.040652 0.761780 0.000000
vt 0.021339 0.787370 0.000000
vt 0.021339 0.761780 0.000000
vt 0.050414 0.787370 0.000000
vt 0.011454 0.787370 0.000000
vt 0.011454 0.761780 0.000000
vt 0.050414 0.761780 0.000000
vt 0.031136 0.761780 0.000000
vt 0.040654 0.738090 0.000000
vt 0.021339 0.738090 0.000000
vt 0.011454 0.738087 0.000000
vt 0.050414 0.738091 0.000000
vt 0.031136 0.738090 0.000000
vt 0.050414 0.716645 0.000000
vt 0.011454 0.716644 0.000000
vt 0.021339 0.716645 0.000000
vt 0.040655 0.716645 0.000000
vt 0.031138 0.642787 0.000000
vt 0.031137 0.693487 0.000000
vt 0.040664 0.642801 0.000000
vt 0.040660 0.669312 0.000000
vt 0.021339 0.642786 0.000000
vt 0.021338 0.669313 0.000000
vt 0.011453 0.642801 0.000000
vt 0.050415 0.642798 0.000000
vt 0.050415 0.669313 0.000000
vt 0.011453 0.669313 0.000000
vt 0.031138 0.669312 0.000000
vt 0.040657 0.693480 0.000000
vt 0.021339 0.693485 0.000000
vt 0.050415 0.693468 0.000000
vt 0.011454 0.693483 0.000000
#end 101 texture vertices

#begin 62 faces
usemtl _11
f 1/1/1 3/3/2 4/4/3 9/11/4 
usemtl _11
f 1/1/5 9/11/6 6/6/7 5/5/8 
usemtl _11
f 5/5/12 6/6/11 8/10/10 7/7/9 
usemtl _11
f 11/13/16 13/16/15 2/2/14 15/19/13 
usemtl _11
f 3/3/17 7/8/18 8/9/19 4/4/20 
usemtl _11
f 9/11/21 4/4/22 10/12/23 13/16/24 
usemtl _11
f 4/4/25 8/9/26 12/14/27 10/12/28 
usemtl _11
f 8/10/29 6/6/30 11/13/31 12/15/32 
usemtl _11
f 6/6/33 9/11/34 13/16/35 11/13/36 
usemtl _11
f 13/16/37 10/12/38 16/20/39 2/2/40 
usemtl _11
f 10/12/41 12/14/42 14/18/43 16/20/44 
usemtl _11
f 12/15/45 11/13/46 15/19/47 14/17/48 
usemtl _11
f 17/21/49 25/31/52 20/24/51 19/23/50 
usemtl _11
f 17/21/53 21/25/56 22/26/55 25/31/54 
usemtl _11
f 21/25/60 23/28/57 24/29/58 22/26/59 
usemtl _11
f 27/33/64 15/19/61 2/2/62 18/22/63 
usemtl _11
f 19/23/65 20/24/68 24/30/67 23/27/66 
usemtl _11
f 25/31/69 18/22/72 26/32/71 20/24/70 
usemtl _11
f 20/24/73 26/32/76 28/35/75 24/30/74 
usemtl _11
f 24/29/77 28/34/80 27/33/79 22/26/78 
usemtl _11
f 22/26/81 27/33/84 18/22/83 25/31/82 
usemtl _11
f 18/22/85 2/2/88 16/20/87 26/32/86 
usemtl _11
f 26/32/89 16/20/92 14/18/91 28/35/90 
usemtl _11
f 28/34/93 14/17/96 15/19/95 27/33/94 
usemtl _11
f 43/63/97 41/60/106 40/57/99 34/47/103 
usemtl _11
f 41/59/120 37/54/107 33/45/102 40/58/110 
usemtl _11
f 32/42/98 43/63/101 34/47/118 35/49/119 
usemtl _11
f 36/52/115 44/65/116 42/61/109 30/38/100 
usemtl _11
f 31/40/113 39/56/114 29/36/105 38/55/117 
usemtl _11
f 37/53/108 32/43/104 35/51/111 33/46/112 
usemtl _11
f 33/46/124 35/51/123 31/41/122 38/55/121 
usemtl _11
f 40/58/128 33/45/127 38/55/126 29/36/125 
usemtl _11
f 34/47/132 40/57/131 29/37/130 39/56/129 
usemtl _11
f 35/50/136 34/48/135 39/56/134 31/40/133 
usemtl _11
f 41/60/140 43/63/139 36/52/138 30/39/137 
usemtl _11
f 37/54/144 41/59/143 30/38/142 42/61/141 
usemtl _11
f 32/43/148 37/53/147 42/62/146 44/65/145 
usemtl _11
f 43/64/152 32/44/151 44/66/150 36/52/149 
usemtl _11
f 45/67/153 53/77/156 48/70/155 47/69/154 
usemtl _11
f 45/67/157 49/71/160 50/72/159 53/77/158 
usemtl _11
f 49/71/164 51/74/161 52/75/162 50/72/163 
usemtl _11
f 55/79/168 59/85/165 46/68/166 57/82/167 
usemtl _11
f 47/69/169 48/70/172 52/76/171 51/73/170 
usemtl _11
f 53/77/173 57/82/176 54/78/175 48/70/174 
usemtl _11
f 48/70/177 54/78/180 56/81/179 52/76/178 
usemtl _11
f 52/75/181 56/80/184 55/79/183 50/72/182 
usemtl _11
f 50/72/185 55/79/188 57/82/187 53/77/186 
usemtl _11
f 57/82/189 46/68/192 60/86/191 54/78/190 
usemtl _11
f 54/78/193 60/86/196 58/83/195 56/81/194 
usemtl _11
f 56/80/197 58/84/200 59/85/199 55/79/198 
usemtl _11
f 61/87/201 63/89/202 64/90/203 69/97/204 
usemtl _11
f 61/87/205 69/97/206 66/92/207 65/91/208 
usemtl _11
f 65/91/212 66/92/211 68/96/210 67/93/209 
usemtl _11
f 71/99/216 62/88/215 46/68/214 59/85/213 
usemtl _11
f 63/89/217 67/94/218 68/95/219 64/90/220 
usemtl _11
f 69/97/221 64/90/222 70/98/223 62/88/224 
usemtl _11
f 64/90/225 68/95/226 72/100/227 70/98/228 
usemtl _11
f 68/96/229 66/92/230 71/99/231 72/101/232 
usemtl _11
f 66/92/233 69/97/234 62/88/235 71/99/236 
usemtl _11
f 62/88/237 70/98/238 60/86/239 46/68/240 
usemtl _11
f 70/98/241 72/100/242 58/83/243 60/86/244 
usemtl _11
f 72/101/245 71/99/246 59/85/247 58/84/248 
#end 62 faces
