# XSI Wavefront OBJ Export v3.0
# File Created: Wed Jul 22 13:12:39 2015
# XSI Version: 10.0.422.0
mtllib Health_Regenration.mtl

o Regenration
# Hierarchy (from self to top father)
g Regenration

#begin 40 vertices
v -9.405265 -0.015057 -2.941024
v 9.405265 -0.015057 -2.941024
v -9.405265 7.310041 -2.941024
v 9.405265 7.310041 -2.941024
v -9.405265 -0.015057 2.941024
v 9.405265 -0.015057 2.941024
v -9.405265 7.310041 2.941024
v 9.405265 7.310041 2.941024
v 9.620825 6.318687 -1.361454
v 9.405265 6.318687 -1.361454
v -9.405265 11.151173 -0.823902
v 9.405265 10.961846 -0.117324
v 9.620825 6.508014 -2.068033
v 9.405265 6.508014 -2.068033
v 9.620825 11.433731 -0.748191
v 9.405265 11.151173 -0.823902
v 9.620825 11.244404 -0.041612
v -9.620825 11.433731 -0.748191
v -9.405265 6.508014 -2.068033
v -9.620825 6.508014 -2.068033
v -9.620825 6.318687 -1.361454
v -9.405265 6.318687 -1.361454
v -9.620825 11.244404 -0.041612
v -9.405265 10.961846 -0.117324
v 9.620825 6.318687 1.361454
v 9.405265 6.318687 1.361454
v -9.405265 11.151173 0.823902
v 9.405265 10.961846 0.117324
v 9.620825 6.508014 2.068033
v 9.405265 6.508014 2.068033
v 9.620825 11.433731 0.748191
v 9.405265 11.151173 0.823902
v 9.620825 11.244404 0.041612
v -9.620825 11.433731 0.748191
v -9.405265 6.508014 2.068033
v -9.620825 6.508014 2.068033
v -9.620825 6.318687 1.361454
v -9.405265 6.318687 1.361454
v -9.620825 11.244404 0.041612
v -9.405265 10.961846 0.117324
#end 40 vertices

#begin 136 normals
vn 0.000000 -0.000000 -1.000000
vn 0.000000 -0.000000 -1.000000
vn 0.000000 -0.000000 -1.000000
vn 0.000000 -0.000000 -1.000000
vn -0.000000 -1.000000 0.000000
vn -0.000000 -1.000000 0.000000
vn -0.000000 -1.000000 0.000000
vn -0.000000 -1.000000 0.000000
vn -1.000000 0.000000 -0.000000
vn -1.000000 0.000000 -0.000000
vn -1.000000 0.000000 -0.000000
vn -1.000000 0.000000 -0.000000
vn 1.000000 0.000000 0.000000
vn 1.000000 0.000000 0.000000
vn 1.000000 0.000000 0.000000
vn 1.000000 0.000000 0.000000
vn 0.000000 1.000000 0.000000
vn 0.000000 1.000000 0.000000
vn 0.000000 1.000000 0.000000
vn 0.000000 1.000000 0.000000
vn 0.000000 0.000000 1.000000
vn 0.000000 0.000000 1.000000
vn 0.000000 0.000000 1.000000
vn 0.000000 0.000000 1.000000
vn -0.000000 -0.258819 0.965926
vn -0.000000 -0.258819 0.965926
vn -0.000000 -0.258819 0.965926
vn -0.000000 -0.258819 0.965926
vn 0.000000 -0.965926 -0.258819
vn 0.000000 -0.965926 -0.258819
vn 0.000000 -0.965926 -0.258819
vn 0.000000 -0.965926 -0.258819
vn 1.000000 -0.000000 -0.000000
vn 1.000000 -0.000000 -0.000000
vn 1.000000 -0.000000 -0.000000
vn 1.000000 -0.000000 -0.000000
vn -1.000000 0.000000 0.000000
vn -1.000000 0.000000 0.000000
vn -1.000000 0.000000 0.000000
vn -1.000000 0.000000 0.000000
vn -0.000000 -0.258819 0.965926
vn 0.000000 -0.258819 0.965926
vn 0.000000 -0.258819 0.965926
vn -0.000000 -0.258819 0.965926
vn 0.000000 0.258819 -0.965926
vn 0.000000 0.258819 -0.965926
vn 0.000000 0.258819 -0.965926
vn 0.000000 0.258819 -0.965926
vn -0.000000 -0.965926 -0.258819
vn -0.000000 -0.965926 -0.258819
vn -0.000000 -0.965926 -0.258819
vn -0.000000 -0.965926 -0.258819
vn 0.000000 0.258819 -0.965926
vn -0.000000 0.258819 -0.965926
vn -0.000000 0.258819 -0.965926
vn 0.000000 0.258819 -0.965926
vn 0.000000 0.965926 0.258819
vn 0.000000 0.965926 0.258819
vn 0.000000 0.965926 0.258819
vn 0.000000 0.965926 0.258819
vn 0.000000 -0.258819 0.965926
vn 0.000000 -0.258819 0.965926
vn 0.000000 -0.258819 0.965926
vn 0.000000 -0.258819 0.965926
vn 0.000000 -0.965926 -0.258819
vn 0.000000 -0.965926 -0.258819
vn 0.000000 -0.965926 -0.258819
vn 0.000000 -0.965926 -0.258819
vn -1.000000 0.000000 0.000000
vn -1.000000 0.000000 0.000000
vn -1.000000 0.000000 0.000000
vn -1.000000 0.000000 0.000000
vn 1.000000 -0.000000 -0.000000
vn 1.000000 -0.000000 -0.000000
vn 1.000000 -0.000000 -0.000000
vn 1.000000 -0.000000 -0.000000
vn -0.000000 0.258819 -0.965926
vn -0.000000 0.258819 -0.965926
vn -0.000000 0.258819 -0.965926
vn -0.000000 0.258819 -0.965926
vn -0.000000 -0.258819 -0.965926
vn -0.000000 -0.258819 -0.965926
vn -0.000000 -0.258819 -0.965926
vn -0.000000 -0.258819 -0.965926
vn 0.000000 -0.965926 0.258819
vn 0.000000 -0.965926 0.258819
vn 0.000000 -0.965926 0.258819
vn 0.000000 -0.965926 0.258819
vn 1.000000 -0.000000 0.000000
vn 1.000000 -0.000000 0.000000
vn 1.000000 -0.000000 0.000000
vn 1.000000 -0.000000 0.000000
vn -1.000000 0.000000 -0.000000
vn -1.000000 0.000000 -0.000000
vn -1.000000 0.000000 -0.000000
vn -1.000000 0.000000 -0.000000
vn -0.000000 -0.258819 -0.965926
vn 0.000000 -0.258819 -0.965926
vn 0.000000 -0.258819 -0.965926
vn -0.000000 -0.258819 -0.965926
vn 0.000000 0.258819 0.965926
vn 0.000000 0.258819 0.965926
vn 0.000000 0.258819 0.965926
vn 0.000000 0.258819 0.965926
vn -0.000000 -0.965926 0.258819
vn -0.000000 -0.965926 0.258819
vn -0.000000 -0.965926 0.258819
vn -0.000000 -0.965926 0.258819
vn 0.000000 0.258819 0.965926
vn -0.000000 0.258819 0.965926
vn -0.000000 0.258819 0.965926
vn 0.000000 0.258819 0.965926
vn 0.000000 0.965926 -0.258819
vn 0.000000 0.965926 -0.258819
vn 0.000000 0.965926 -0.258819
vn 0.000000 0.965926 -0.258819
vn 0.000000 -0.258819 -0.965926
vn 0.000000 -0.258819 -0.965926
vn 0.000000 -0.258819 -0.965926
vn 0.000000 -0.258819 -0.965926
vn 0.000000 -0.965926 0.258819
vn 0.000000 -0.965926 0.258819
vn 0.000000 -0.965926 0.258819
vn 0.000000 -0.965926 0.258819
vn -1.000000 0.000000 -0.000000
vn -1.000000 0.000000 -0.000000
vn -1.000000 0.000000 -0.000000
vn -1.000000 0.000000 -0.000000
vn 1.000000 -0.000000 0.000000
vn 1.000000 -0.000000 0.000000
vn 1.000000 -0.000000 0.000000
vn 1.000000 -0.000000 0.000000
vn -0.000000 0.258819 0.965926
vn -0.000000 0.258819 0.965926
vn -0.000000 0.258819 0.965926
vn -0.000000 0.258819 0.965926
#end 136 vertex normals

#begin texture vertices
vt 0.681222 0.756182 0.000000
vt 0.610467 0.826938 0.000000
vt 0.907496 0.756182 0.000000
vt 0.978252 0.826938 0.000000
vt 0.681222 0.668068 0.000000
vt 0.610467 0.915052 0.000000
vt 0.681222 0.985808 0.000000
vt 0.978252 0.915052 0.000000
vt 0.907496 0.668068 0.000000
vt 0.907496 0.985808 0.000000
vt 0.681222 0.826938 0.000000
vt 0.907496 0.826938 0.000000
vt 0.681222 0.915052 0.000000
vt 0.907496 0.915052 0.000000
vt 0.913776 0.713548 0.000000
vt 0.913785 0.703578 0.000000
vt 0.910847 0.703578 0.000000
vt 0.913776 0.716486 0.000000
vt 0.913219 0.726463 0.000000
vt 0.979307 0.962821 0.000000
vt 0.982417 0.972875 0.000000
vt 0.983378 0.716486 0.000000
vt 0.979283 0.726540 0.000000
vt 0.913785 0.703578 0.000000
vt 0.913785 0.713548 0.000000
vt 0.913776 0.713548 0.000000
vt 0.910847 0.713548 0.000000
vt 0.913231 0.716410 0.000000
vt 0.913776 0.716486 0.000000
vt 0.993252 0.975813 0.000000
vt 0.983291 0.703642 0.000000
vt 0.983282 0.713548 0.000000
vt 0.982417 0.716486 0.000000
vt 0.983282 0.713548 0.000000
vt 0.983282 0.713613 0.000000
vt 0.983282 0.975813 0.000000
vt 0.983282 0.975813 0.000000
vt 0.983291 0.985719 0.000000
vt 0.993252 0.713548 0.000000
vt 0.913243 0.962744 0.000000
vt 0.910847 0.975813 0.000000
vt 0.913776 0.972875 0.000000
vt 0.913785 0.975813 0.000000
vt 0.913785 0.985783 0.000000
vt 0.913776 0.975813 0.000000
vt 0.913785 0.985783 0.000000
vt 0.913776 0.975813 0.000000
vt 0.913776 0.972875 0.000000
vt 0.910847 0.985783 0.000000
vt 0.913231 0.972798 0.000000
vt 0.983282 0.713548 0.000000
vt 0.983282 0.975748 0.000000
vt 0.983282 0.975813 0.000000
vt 0.983378 0.972875 0.000000
vt 0.913785 0.703578 0.000000
vt 0.913776 0.713548 0.000000
vt 0.913776 0.716486 0.000000
vt 0.910847 0.703578 0.000000
vt 0.913219 0.726463 0.000000
vt 0.979295 0.972875 0.000000
vt 0.979307 0.962821 0.000000
vt 0.983858 0.716486 0.000000
vt 0.979283 0.726540 0.000000
vt 0.913785 0.713548 0.000000
vt 0.913785 0.703578 0.000000
vt 0.913776 0.713548 0.000000
vt 0.913231 0.716410 0.000000
vt 0.910847 0.713548 0.000000
vt 0.913776 0.716486 0.000000
vt 0.983282 0.713548 0.000000
vt 0.983291 0.703642 0.000000
vt 0.993252 0.975813 0.000000
vt 0.979295 0.716486 0.000000
vt 0.983282 0.975813 0.000000
vt 0.983282 0.713613 0.000000
vt 0.983282 0.713548 0.000000
vt 0.993252 0.713548 0.000000
vt 0.983291 0.985719 0.000000
vt 0.983282 0.975813 0.000000
vt 0.910847 0.975813 0.000000
vt 0.913243 0.962744 0.000000
vt 0.913776 0.972875 0.000000
vt 0.913785 0.985783 0.000000
vt 0.913785 0.975813 0.000000
vt 0.913776 0.975813 0.000000
vt 0.913776 0.975813 0.000000
vt 0.913785 0.985783 0.000000
vt 0.910847 0.985783 0.000000
vt 0.913776 0.972875 0.000000
vt 0.913231 0.972798 0.000000
vt 0.983282 0.975813 0.000000
vt 0.983282 0.975748 0.000000
vt 0.983282 0.713548 0.000000
vt 0.983858 0.972875 0.000000
#end 94 texture vertices

#begin 34 faces
usemtl _11
f 1/1/1 3/5/2 4/9/3 2/3/4 
usemtl _11
f 1/1/5 2/3/6 6/12/7 5/11/8 
usemtl _11
f 1/2/9 5/11/10 7/13/11 3/6/12 
usemtl _11
f 2/4/13 4/8/14 8/14/15 6/12/16 
usemtl _11
f 3/7/17 7/13/18 8/14/19 4/10/20 
usemtl _11
f 5/11/21 6/12/22 8/14/23 7/13/24 
usemtl _11
f 9/15/25 17/34/26 12/22/27 10/18/28 
usemtl _11
f 9/16/29 10/17/30 14/27/31 13/25/32 
usemtl _11
f 9/15/33 13/24/34 15/31/35 17/35/36 
usemtl _11
f 10/19/37 12/23/38 16/33/39 14/28/40 
usemtl _11
f 12/22/44 17/34/41 23/53/42 24/54/43 
usemtl _11
f 13/26/45 14/29/46 16/33/47 15/32/48 
usemtl _11
f 16/33/52 12/22/49 24/54/50 11/21/51 
usemtl _11
f 15/32/56 16/33/53 11/21/54 18/37/55 
usemtl _11
f 17/36/60 15/30/57 18/39/58 23/51/59 
usemtl _11
f 21/47/61 22/48/64 24/54/63 23/53/62 
usemtl _11
f 21/46/65 20/43/68 19/41/67 22/49/66 
usemtl _11
f 21/47/69 23/52/72 18/38/71 20/44/70 
usemtl _11
f 22/50/73 19/40/76 11/20/75 24/54/74 
usemtl _11
f 20/45/80 18/37/77 11/21/78 19/42/79 
usemtl _11
f 25/56/81 26/57/84 28/62/83 33/76/82 
usemtl _11
f 25/55/85 29/64/88 30/68/87 26/58/86 
usemtl _11
f 25/56/89 33/75/92 31/71/91 29/65/90 
usemtl _11
f 26/59/93 30/67/96 32/73/95 28/63/94 
usemtl _11
f 28/62/100 40/94/99 39/91/98 33/76/97 
usemtl _11
f 29/66/101 31/70/104 32/73/103 30/69/102 
usemtl _11
f 32/73/108 27/60/107 40/94/106 28/62/105 
usemtl _11
f 31/70/112 34/79/111 27/60/110 32/73/109 
usemtl _11
f 33/74/116 39/93/115 34/77/114 31/72/113 
usemtl _11
f 37/86/117 39/91/118 40/94/119 38/89/120 
usemtl _11
f 37/87/121 38/88/122 35/80/123 36/84/124 
usemtl _11
f 37/86/125 36/83/126 34/78/127 39/92/128 
usemtl _11
f 38/90/129 40/94/130 27/61/131 35/81/132 
usemtl _11
f 36/85/136 35/82/135 27/60/134 34/79/133 
#end 34 faces
