# XSI Wavefront OBJ Export v3.0
# File Created: Tue Apr 07 17:02:25 2015
# XSI Version: 10.0.422.0
mtllib AREA.mtl

o cube1
# Hierarchy (from self to top father)
g cube1

#begin 8 vertices
v -15.753069 0.000000 -15.753069
v 15.753069 0.000000 -15.753069
v -15.753069 8.000000 -15.753069
v 15.753069 8.000000 -15.753069
v -15.753069 0.000000 15.753069
v 15.753069 0.000000 15.753069
v -15.753069 8.000000 15.753069
v 15.753069 8.000000 15.753069
#end 8 vertices

#begin 16 normals
vn 0.000000 -0.000000 -1.000000
vn 0.000000 -0.000000 -1.000000
vn 0.000000 -0.000000 -1.000000
vn 0.000000 -0.000000 -1.000000
vn 0.000000 0.000000 1.000000
vn 0.000000 0.000000 1.000000
vn 0.000000 0.000000 1.000000
vn 0.000000 0.000000 1.000000
vn -1.000000 0.000000 -0.000000
vn -1.000000 0.000000 -0.000000
vn -1.000000 0.000000 -0.000000
vn -1.000000 0.000000 -0.000000
vn 1.000000 0.000000 0.000000
vn 1.000000 0.000000 0.000000
vn 1.000000 0.000000 0.000000
vn 1.000000 0.000000 0.000000
#end 16 vertex normals

#begin texture vertices
vt 0.999169 0.450753 0.000000
vt 0.999169 0.008529 0.000000
vt 0.833023 0.450753 0.000000
vt 0.833023 0.008529 0.000000
vt 0.999169 0.450753 0.000000
vt 0.999169 0.450753 0.000000
vt 0.833023 0.450753 0.000000
vt 0.833023 0.450753 0.000000
#end 8 texture vertices

#begin 4 faces
usemtl constant1
f 1/1/1 3/3/2 4/4/3 2/2/4 
usemtl constant1
f 5/5/8 6/6/7 8/8/6 7/7/5 
usemtl constant1
f 1/1/9 5/5/10 7/7/11 3/3/12 
usemtl constant1
f 2/2/13 4/4/14 8/8/15 6/6/16 
#end 4 faces
