# XSI Wavefront OBJ Export v3.0
# File Created: Tue Apr 07 16:59:00 2015
# XSI Version: 10.0.422.0
mtllib CRATES.mtl

o CRATES
# Hierarchy (from self to top father)
g CRATES

#begin 8 vertices
v -8.000000 0.000000 -8.000000
v 8.000000 0.000000 -8.000000
v -8.000000 16.000000 -8.000000
v 8.000000 16.000000 -8.000000
v -8.000000 0.000000 8.000000
v 8.000000 0.000000 8.000000
v -8.000000 16.000000 8.000000
v 8.000000 16.000000 8.000000
#end 8 vertices

#begin 24 normals
vn 0.000000 -0.000000 -1.000000
vn 0.000000 -0.000000 -1.000000
vn 0.000000 -0.000000 -1.000000
vn 0.000000 -0.000000 -1.000000
vn -0.000000 -1.000000 0.000000
vn -0.000000 -1.000000 0.000000
vn -0.000000 -1.000000 0.000000
vn -0.000000 -1.000000 0.000000
vn -1.000000 0.000000 -0.000000
vn -1.000000 0.000000 -0.000000
vn -1.000000 0.000000 -0.000000
vn -1.000000 0.000000 -0.000000
vn 1.000000 0.000000 0.000000
vn 1.000000 0.000000 0.000000
vn 1.000000 0.000000 0.000000
vn 1.000000 0.000000 0.000000
vn 0.000000 1.000000 0.000000
vn 0.000000 1.000000 0.000000
vn 0.000000 1.000000 0.000000
vn 0.000000 1.000000 0.000000
vn 0.000000 0.000000 1.000000
vn 0.000000 0.000000 1.000000
vn 0.000000 0.000000 1.000000
vn 0.000000 0.000000 1.000000
#end 24 vertex normals

#begin texture vertices
vt 0.503337 0.482860 0.000000
vt 0.667046 0.319211 0.000000
vt 0.667107 0.482882 0.000000
vt 0.503341 0.646672 0.000000
vt 0.667229 0.810606 0.000000
vt 0.667168 0.646682 0.000000
vt 0.339541 0.482837 0.000000
vt 0.830936 0.317967 0.000000
vt 0.994729 0.482927 0.000000
vt 0.830936 0.482905 0.000000
vt 0.830936 0.809362 0.000000
vt 0.339540 0.646662 0.000000
vt 0.994740 0.646702 0.000000
vt 0.830936 0.646692 0.000000
#end 14 texture vertices

#begin 6 faces
usemtl constant
f 1/1/1 3/4/2 4/6/3 2/3/4 
usemtl constant
f 1/2/5 2/3/6 6/10/7 5/8/8 
usemtl constant
f 1/1/9 5/7/10 7/12/11 3/4/12 
usemtl constant
f 2/3/13 4/6/14 8/14/15 6/10/16 
usemtl constant
f 3/5/17 7/11/18 8/14/19 4/6/20 
usemtl constant
f 5/9/21 6/10/22 8/14/23 7/13/24 
#end 6 faces
