# XSI Wavefront OBJ Export v3.0
# File Created: Tue Apr 07 17:01:56 2015
# XSI Version: 10.0.422.0
mtllib HAZZARD_SIGN.mtl

o Hazzard_Sign
# Hierarchy (from self to top father)
g Hazzard_Sign

#begin 14 vertices
v -0.271636 0.000000 -0.350555
v 0.429475 0.000000 -0.350555
v -0.271636 35.424987 -0.350555
v 0.429475 35.424987 -0.350555
v -0.271636 0.000000 0.350555
v 0.429475 0.000000 0.350555
v -0.271636 35.424987 0.350555
v 0.429475 35.424987 0.350555
v -0.429475 28.124407 -5.754079
v -0.271636 28.124407 -5.754079
v -0.271636 39.005560 0.000000
v -0.429475 39.005560 0.000000
v -0.429475 28.124407 5.754079
v -0.271636 28.124407 5.754079
#end 14 vertices

#begin 42 normals
vn 0.000000 -0.000000 -1.000000
vn 0.000000 -0.000000 -1.000000
vn 0.000000 -0.000000 -1.000000
vn 0.000000 -0.000000 -1.000000
vn -0.000000 -1.000000 0.000000
vn -0.000000 -1.000000 0.000000
vn -0.000000 -1.000000 0.000000
vn -0.000000 -1.000000 0.000000
vn -1.000000 0.000000 -0.000000
vn -1.000000 0.000000 -0.000000
vn -1.000000 0.000000 -0.000000
vn -1.000000 0.000000 -0.000000
vn 1.000000 0.000000 0.000000
vn 1.000000 0.000000 0.000000
vn 1.000000 0.000000 0.000000
vn 1.000000 0.000000 0.000000
vn 0.000000 1.000000 0.000000
vn 0.000000 1.000000 0.000000
vn 0.000000 1.000000 0.000000
vn 0.000000 1.000000 0.000000
vn 0.000000 0.000000 1.000000
vn 0.000000 0.000000 1.000000
vn 0.000000 0.000000 1.000000
vn 0.000000 0.000000 1.000000
vn 0.000000 0.467473 -0.884007
vn 0.000000 0.467473 -0.884007
vn 0.000000 0.467473 -0.884007
vn 0.000000 0.467473 -0.884007
vn -0.000000 -1.000000 0.000000
vn -0.000000 -1.000000 0.000000
vn -0.000000 -1.000000 0.000000
vn -0.000000 -1.000000 0.000000
vn 0.000000 0.467473 0.884007
vn -1.000000 0.000000 0.000000
vn 0.000000 0.467473 0.884007
vn 0.000000 0.467473 0.884007
vn 1.000000 0.000000 0.000000
vn -1.000000 0.000000 0.000000
vn 0.000000 0.467473 0.884007
vn 1.000000 0.000000 0.000000
vn -1.000000 0.000000 0.000000
vn 1.000000 0.000000 0.000000
#end 42 vertex normals

#begin texture vertices
vt 0.635255 0.432828 0.000000
vt 0.646702 0.423047 0.000000
vt 0.635255 0.423047 0.000000
vt 0.270242 0.432828 0.000000
vt 0.257668 0.423047 0.000000
vt 0.270242 0.423047 0.000000
vt 0.635255 0.442609 0.000000
vt 0.646702 0.413266 0.000000
vt 0.635255 0.413266 0.000000
vt 0.635255 0.452390 0.000000
vt 0.257668 0.413266 0.000000
vt 0.270242 0.442609 0.000000
vt 0.270242 0.413266 0.000000
vt 0.270242 0.452390 0.000000
vt 0.164883 0.499699 0.000000
vt 0.165517 0.842753 0.000000
vt 0.154043 0.506532 0.000000
vt 0.083816 0.639334 0.000000
vt 0.083816 0.652999 0.000000
vt 0.085215 0.994605 0.000000
vt 0.004914 0.842753 0.000000
vt 0.002749 0.499699 0.000000
vt 0.013589 0.506532 0.000000
#end 23 texture vertices

#begin 11 faces
usemtl constant
f 1/1/1 3/4/2 4/6/3 2/3/4 
usemtl constant
f 1/2/5 2/3/6 6/9/7 5/8/8 
usemtl constant
f 1/1/9 5/7/10 7/12/11 3/4/12 
usemtl constant
f 2/3/13 4/6/14 8/13/15 6/9/16 
usemtl constant
f 3/5/17 7/11/18 8/13/19 4/6/20 
usemtl constant
f 5/7/21 6/10/22 8/14/23 7/12/24 
usemtl constant
f 9/15/28 12/19/27 11/18/26 10/17/25 
usemtl constant
f 9/15/29 10/17/30 14/23/31 13/22/32 
usemtl constant
f 13/22/39 14/23/36 11/18/35 12/19/33 
usemtl constant
f 10/17/37 11/18/42 14/23/40 
usemtl constant
f 13/21/34 12/20/38 9/16/41 
#end 11 faces
