# XSI Wavefront OBJ Export v3.0
# File Created: Tue Feb 17 10:59:21 2015
# XSI Version: 10.0.422.0
o 10.0.422.0
mtllib Rail_Way_Cross_Rail.mtl


# Hierarchy (from self to top father)
g polymsh_detached9

#begin 32 vertices
v 512.928433 45.934736 -280.681268
v 512.928433 102.761659 -280.681268
v 512.928433 102.761659 -248.121376
v 512.928433 45.934736 -248.121376
v -512.928433 45.934736 -248.121376
v -512.928433 45.934736 -280.681268
v -512.928433 102.761659 -280.681268
v -512.928433 102.761659 -248.121376
v 512.928433 45.934736 234.354535
v 512.928433 102.761659 234.354535
v 512.928433 102.761659 266.914428
v 512.928433 45.934736 266.914428
v -512.928433 45.934736 266.914428
v -512.928433 45.934736 234.354535
v -512.928433 102.761659 234.354535
v -512.928433 102.761659 266.914428
v 223.836621 45.934736 -512.928433
v 223.836621 102.761659 -512.928433
v 256.396513 102.761659 -512.928433
v 256.396513 45.934736 -512.928433
v 256.396513 45.934736 512.928433
v 223.836621 45.934736 512.928433
v 223.836621 102.761659 512.928433
v 256.396513 102.761659 512.928433
v -277.432342 45.934736 -512.928433
v -277.432342 102.761659 -512.928433
v -244.872450 102.761659 -512.928433
v -244.872450 45.934736 -512.928433
v -244.872450 45.934736 512.928433
v -277.432342 45.934736 512.928433
v -277.432342 102.761659 512.928433
v -244.872450 102.761659 512.928433
#end 32 vertices

#begin 96 normals
vn 1.000000 0.000000 0.000000
vn 1.000000 0.000000 0.000000
vn 1.000000 0.000000 0.000000
vn 1.000000 0.000000 0.000000
vn 0.000000 -1.000000 0.000000
vn 0.000000 -1.000000 0.000000
vn 0.000000 -1.000000 0.000000
vn 0.000000 -1.000000 0.000000
vn 0.000000 0.000000 -1.000000
vn 0.000000 0.000000 -1.000000
vn 0.000000 0.000000 -1.000000
vn 0.000000 0.000000 -1.000000
vn -0.000000 0.000000 1.000000
vn -0.000000 0.000000 1.000000
vn -0.000000 0.000000 1.000000
vn -0.000000 0.000000 1.000000
vn -0.000000 1.000000 0.000000
vn -0.000000 1.000000 0.000000
vn -0.000000 1.000000 0.000000
vn -0.000000 1.000000 0.000000
vn -1.000000 0.000000 -0.000000
vn -1.000000 0.000000 -0.000000
vn -1.000000 0.000000 -0.000000
vn -1.000000 0.000000 -0.000000
vn 1.000000 0.000000 0.000000
vn 1.000000 0.000000 0.000000
vn 1.000000 0.000000 0.000000
vn 1.000000 0.000000 0.000000
vn 0.000000 -1.000000 0.000000
vn 0.000000 -1.000000 0.000000
vn 0.000000 -1.000000 0.000000
vn 0.000000 -1.000000 0.000000
vn 0.000000 0.000000 -1.000000
vn 0.000000 0.000000 -1.000000
vn 0.000000 0.000000 -1.000000
vn 0.000000 0.000000 -1.000000
vn -0.000000 0.000000 1.000000
vn -0.000000 0.000000 1.000000
vn -0.000000 0.000000 1.000000
vn -0.000000 0.000000 1.000000
vn -0.000000 1.000000 0.000000
vn -0.000000 1.000000 0.000000
vn -0.000000 1.000000 0.000000
vn -0.000000 1.000000 0.000000
vn -1.000000 0.000000 -0.000000
vn -1.000000 0.000000 -0.000000
vn -1.000000 0.000000 -0.000000
vn -1.000000 0.000000 -0.000000
vn 0.000000 -0.000000 -1.000000
vn 0.000000 -0.000000 -1.000000
vn 0.000000 -0.000000 -1.000000
vn 0.000000 -0.000000 -1.000000
vn -0.000000 -1.000000 0.000000
vn -0.000000 -1.000000 0.000000
vn -0.000000 -1.000000 0.000000
vn -0.000000 -1.000000 0.000000
vn -1.000000 0.000000 -0.000000
vn -1.000000 0.000000 -0.000000
vn -1.000000 0.000000 -0.000000
vn -1.000000 0.000000 -0.000000
vn 1.000000 0.000000 0.000000
vn 1.000000 0.000000 0.000000
vn 1.000000 0.000000 0.000000
vn 1.000000 0.000000 0.000000
vn 0.000000 1.000000 0.000000
vn 0.000000 1.000000 0.000000
vn 0.000000 1.000000 0.000000
vn 0.000000 1.000000 0.000000
vn 0.000000 0.000000 1.000000
vn 0.000000 0.000000 1.000000
vn 0.000000 0.000000 1.000000
vn 0.000000 0.000000 1.000000
vn 0.000000 -0.000000 -1.000000
vn 0.000000 -0.000000 -1.000000
vn 0.000000 -0.000000 -1.000000
vn 0.000000 -0.000000 -1.000000
vn -0.000000 -1.000000 0.000000
vn -0.000000 -1.000000 0.000000
vn -0.000000 -1.000000 0.000000
vn -0.000000 -1.000000 0.000000
vn -1.000000 0.000000 -0.000000
vn -1.000000 0.000000 -0.000000
vn -1.000000 0.000000 -0.000000
vn -1.000000 0.000000 -0.000000
vn 1.000000 0.000000 0.000000
vn 1.000000 0.000000 0.000000
vn 1.000000 0.000000 0.000000
vn 1.000000 0.000000 0.000000
vn 0.000000 1.000000 0.000000
vn 0.000000 1.000000 0.000000
vn 0.000000 1.000000 0.000000
vn 0.000000 1.000000 0.000000
vn 0.000000 0.000000 1.000000
vn 0.000000 0.000000 1.000000
vn 0.000000 0.000000 1.000000
vn 0.000000 0.000000 1.000000
#end 96 vertex normals

#begin texture vertices
vt 0.991474 0.589715 0.000000
vt 0.955923 0.513201 0.000000
vt 0.958301 0.589715 0.000000
vt 0.955923 0.553671 0.000000
vt 0.955923 0.553671 0.000000
vt 0.958301 0.554573 0.000000
vt 0.991474 0.554573 0.000000
vt 0.955923 0.513201 0.000000
vt 0.432667 0.554573 0.000000
vt 0.464071 0.513201 0.000000
vt 0.464071 0.513201 0.000000
vt 0.432667 0.589715 0.000000
vt 0.461693 0.589715 0.000000
vt 0.464071 0.553671 0.000000
vt 0.464071 0.553671 0.000000
vt 0.461693 0.554573 0.000000
vt 0.991474 0.589715 0.000000
vt 0.955923 0.513201 0.000000
vt 0.958301 0.589715 0.000000
vt 0.955923 0.553671 0.000000
vt 0.955923 0.553671 0.000000
vt 0.958301 0.554573 0.000000
vt 0.991474 0.554573 0.000000
vt 0.955923 0.513201 0.000000
vt 0.432667 0.554573 0.000000
vt 0.464071 0.513201 0.000000
vt 0.464071 0.513201 0.000000
vt 0.432667 0.589715 0.000000
vt 0.461693 0.589715 0.000000
vt 0.464071 0.553671 0.000000
vt 0.464071 0.553671 0.000000
vt 0.461693 0.554573 0.000000
vt 0.991474 0.589715 0.000000
vt 0.955923 0.513201 0.000000
vt 0.958301 0.589715 0.000000
vt 0.955923 0.553671 0.000000
vt 0.955923 0.553671 0.000000
vt 0.958301 0.554573 0.000000
vt 0.991474 0.554573 0.000000
vt 0.955923 0.513201 0.000000
vt 0.432667 0.554573 0.000000
vt 0.464071 0.513201 0.000000
vt 0.464071 0.513201 0.000000
vt 0.432667 0.589715 0.000000
vt 0.461693 0.589715 0.000000
vt 0.464071 0.553671 0.000000
vt 0.464071 0.553671 0.000000
vt 0.461693 0.554573 0.000000
vt 0.991474 0.589715 0.000000
vt 0.955923 0.513201 0.000000
vt 0.958301 0.589715 0.000000
vt 0.955923 0.553671 0.000000
vt 0.955923 0.553671 0.000000
vt 0.958301 0.554573 0.000000
vt 0.991474 0.554573 0.000000
vt 0.955923 0.513201 0.000000
vt 0.432667 0.554573 0.000000
vt 0.464071 0.513201 0.000000
vt 0.464071 0.513201 0.000000
vt 0.432667 0.589715 0.000000
vt 0.461693 0.589715 0.000000
vt 0.464071 0.553671 0.000000
vt 0.464071 0.553671 0.000000
vt 0.461693 0.554573 0.000000
#end 64 texture vertices

#begin 24 faces
usemtl cube16_XSIPOLYCLS.material19
f 1/1/1 2/3/2 3/6/3 4/7/4 
usemtl cube16_XSIPOLYCLS.material19
f 4/7/5 5/9/6 6/12/7 1/1/8 
usemtl cube16_XSIPOLYCLS.material19
f 1/2/9 6/11/10 7/14/11 2/4/12 
usemtl cube16_XSIPOLYCLS.material19
f 3/5/13 8/15/14 5/10/15 4/8/16 
usemtl cube16_XSIPOLYCLS.material19
f 2/3/17 7/13/18 8/16/19 3/6/20 
usemtl cube16_XSIPOLYCLS.material19
f 6/12/21 5/9/22 8/16/23 7/13/24 
usemtl cube16_XSIPOLYCLS.material19
f 9/17/25 10/19/26 11/22/27 12/23/28 
usemtl cube16_XSIPOLYCLS.material19
f 12/23/29 13/25/30 14/28/31 9/17/32 
usemtl cube16_XSIPOLYCLS.material19
f 9/18/33 14/27/34 15/30/35 10/20/36 
usemtl cube16_XSIPOLYCLS.material19
f 11/21/37 16/31/38 13/26/39 12/24/40 
usemtl cube16_XSIPOLYCLS.material19
f 10/19/41 15/29/42 16/32/43 11/22/44 
usemtl cube16_XSIPOLYCLS.material19
f 14/28/45 13/25/46 16/32/47 15/29/48 
usemtl cube16_XSIPOLYCLS.material19
f 17/33/49 18/35/50 19/38/51 20/39/52 
usemtl cube16_XSIPOLYCLS.material19
f 17/33/53 20/39/54 21/41/55 22/44/56 
usemtl cube16_XSIPOLYCLS.material19
f 17/34/57 22/43/58 23/46/59 18/36/60 
usemtl cube16_XSIPOLYCLS.material19
f 20/40/61 19/37/62 24/47/63 21/42/64 
usemtl cube16_XSIPOLYCLS.material19
f 18/35/65 23/45/66 24/48/67 19/38/68 
usemtl cube16_XSIPOLYCLS.material19
f 22/44/69 21/41/70 24/48/71 23/45/72 
usemtl cube16_XSIPOLYCLS.material19
f 25/49/73 26/51/74 27/54/75 28/55/76 
usemtl cube16_XSIPOLYCLS.material19
f 25/49/77 28/55/78 29/57/79 30/60/80 
usemtl cube16_XSIPOLYCLS.material19
f 25/50/81 30/59/82 31/62/83 26/52/84 
usemtl cube16_XSIPOLYCLS.material19
f 28/56/85 27/53/86 32/63/87 29/58/88 
usemtl cube16_XSIPOLYCLS.material19
f 26/51/89 31/61/90 32/64/91 27/54/92 
usemtl cube16_XSIPOLYCLS.material19
f 30/60/93 29/57/94 32/64/95 31/61/96 
#end 24 faces

# Hierarchy (from self to top father)
g Rail_Way_Cross_Rail

#begin 36 vertices
v 512.928433 6.042683 -512.928433
v -512.928433 6.042683 -512.928433
v 512.928433 6.042683 512.928433
v -512.928433 6.042683 512.928433
v -314.850860 45.273701 -512.928433
v -314.850860 45.273701 512.928433
v 300.814817 45.273701 -512.928433
v 300.814817 45.273701 512.928433
v 402.855228 6.042683 -512.928433
v 402.855228 6.042683 512.928433
v -401.724094 6.042683 512.928433
v -401.724094 6.042683 -512.928433
v -401.724094 45.273701 329.088895
v 300.814817 45.273701 329.088895
v -512.928433 45.273701 329.088895
v 512.928433 45.273701 329.088895
v 402.855228 45.273701 329.088895
v -314.850860 45.273701 329.088895
v -314.850860 45.273701 -330.262647
v 402.855228 45.273701 -330.262647
v 512.928433 45.273701 -330.262647
v -512.928433 45.273701 -330.262647
v 300.814817 45.273701 -330.262647
v -401.724094 45.273701 -330.262647
v 512.928433 6.042683 -392.045864
v 402.855228 6.042683 -392.045864
v -314.850860 45.273701 -392.045864
v -401.724094 6.042683 -392.045864
v 300.814817 45.273701 -392.045864
v -512.928433 6.042683 -392.045864
v -512.928433 6.042683 391.263362
v 300.814817 45.273701 391.263362
v -401.724094 6.042683 391.263362
v -314.850860 45.273701 391.263362
v 402.855228 6.042683 391.263362
v 512.928433 6.042683 391.263362
#end 36 vertices

#begin 100 normals
vn -0.210501 0.977594 -0.000000
vn 0.182493 0.983207 0.000000
vn 0.182493 0.983207 0.000000
vn -0.210501 0.977594 -0.000000
vn 0.182493 0.983207 0.000000
vn 0.000000 1.000000 0.000000
vn 0.000000 1.000000 0.000000
vn 0.182493 0.983207 0.000000
vn -0.000000 1.000000 -0.000000
vn -0.210501 0.977594 -0.000000
vn -0.210501 0.977594 -0.000000
vn -0.000000 1.000000 -0.000000
vn 0.182493 0.983207 0.000000
vn 0.182493 0.983207 0.000000
vn 0.182493 0.983207 0.000000
vn 0.182493 0.983207 0.000000
vn -0.210501 0.977594 -0.000000
vn -0.210501 0.977594 -0.000000
vn -0.210501 0.977594 -0.000000
vn -0.210501 0.977594 -0.000000
vn -0.053284 0.995765 -0.074922
vn 0.045592 0.996118 -0.075300
vn 0.045613 0.996150 0.074860
vn -0.053308 0.995796 0.074484
vn 0.046488 0.975496 -0.215052
vn 0.000000 0.960258 -0.279114
vn 0.000000 0.960655 0.277744
vn 0.046501 0.975742 0.213928
vn -0.054348 0.975385 0.213707
vn 0.000000 0.960655 0.277744
vn 0.000000 0.960258 -0.279114
vn -0.054333 0.975139 -0.214830
vn 0.046501 0.975742 0.213928
vn 0.045613 0.996150 0.074860
vn 0.045592 0.996118 -0.075300
vn 0.046488 0.975496 -0.215052
vn -0.054333 0.975139 -0.214830
vn -0.053284 0.995765 -0.074922
vn -0.053308 0.995796 0.074484
vn -0.054348 0.975385 0.213707
vn -0.053308 0.995796 0.074484
vn -0.054348 0.975385 0.213707
vn 0.046501 0.975742 0.213928
vn 0.045613 0.996150 0.074860
vn -0.054348 0.975385 0.213707
vn 0.000000 0.960655 0.277744
vn 0.000000 0.960655 0.277744
vn 0.046501 0.975742 0.213928
vn 0.045613 0.996150 0.074860
vn -0.053308 0.995796 0.074484
vn -0.053284 0.995765 -0.074922
vn 0.045592 0.996118 -0.075300
vn 0.046488 0.975496 -0.215052
vn 0.000000 0.960258 -0.279114
vn 0.000000 0.960258 -0.279114
vn -0.054333 0.975139 -0.214830
vn 0.045592 0.996118 -0.075300
vn 0.046488 0.975496 -0.215052
vn -0.054333 0.975139 -0.214830
vn -0.053284 0.995765 -0.074922
vn 0.000000 0.960258 -0.279114
vn 0.140185 0.966098 -0.216799
vn 0.140185 0.966098 -0.216799
vn -0.159298 0.984319 -0.075769
vn -0.159298 0.984319 -0.075769
vn -0.162356 0.962541 -0.217151
vn -0.162356 0.962541 -0.217151
vn 0.137535 0.987582 -0.075939
vn 0.137535 0.987582 -0.075939
vn 0.000000 0.960258 -0.279114
vn -0.162356 0.962541 -0.217151
vn -0.159298 0.984319 -0.075769
vn 0.137535 0.987582 -0.075939
vn 0.140185 0.966098 -0.216799
vn 0.000000 0.960258 -0.279114
vn -0.162356 0.962541 -0.217151
vn 0.140185 0.966098 -0.216799
vn 0.000000 0.960258 -0.279114
vn -0.159298 0.984319 -0.075769
vn 0.137535 0.987582 -0.075939
vn 0.000000 0.960655 0.277744
vn 0.137546 0.987614 0.075496
vn 0.137546 0.987614 0.075496
vn -0.162340 0.962799 0.216017
vn -0.162340 0.962799 0.216017
vn -0.159311 0.984351 0.075326
vn -0.159311 0.984351 0.075326
vn 0.140171 0.966354 0.215666
vn 0.140171 0.966354 0.215666
vn 0.000000 0.960655 0.277744
vn 0.137546 0.987614 0.075496
vn -0.159311 0.984351 0.075326
vn 0.000000 0.960655 0.277744
vn 0.140171 0.966354 0.215666
vn -0.162340 0.962799 0.216017
vn 0.000000 0.960655 0.277744
vn 0.140171 0.966354 0.215666
vn 0.137546 0.987614 0.075496
vn -0.159311 0.984351 0.075326
vn -0.162340 0.962799 0.216017
#end 100 vertex normals

#begin texture vertices
vt 0.000000 1.000000 0.000000
vt 0.000000 0.000000 0.000000
vt 1.000000 1.000000 0.000000
vt 1.000000 0.000000 0.000000
vt 0.000000 0.196105 0.000000
vt 1.000000 0.196105 0.000000
vt 0.000000 0.806089 0.000000
vt 1.000000 0.806089 0.000000
vt 0.000000 0.890657 0.000000
vt 1.000000 0.890657 0.000000
vt 1.000000 0.110440 0.000000
vt 0.000000 0.110440 0.000000
vt 0.819124 0.110440 0.000000
vt 0.819124 0.806089 0.000000
vt 0.819124 0.000000 0.000000
vt 0.819124 1.000000 0.000000
vt 0.819124 0.890657 0.000000
vt 0.819124 0.196105 0.000000
vt 0.179737 0.196105 0.000000
vt 0.179737 0.890657 0.000000
vt 0.179737 1.000000 0.000000
vt 0.179737 0.000000 0.000000
vt 0.179737 0.806089 0.000000
vt 0.179737 0.110440 0.000000
vt 0.119825 1.000000 0.000000
vt 0.119825 0.890657 0.000000
vt 0.119825 0.196105 0.000000
vt 0.119825 0.110440 0.000000
vt 0.119825 0.806089 0.000000
vt 0.119825 0.000000 0.000000
vt 0.879416 0.000000 0.000000
vt 0.879416 0.806089 0.000000
vt 0.879416 0.110440 0.000000
vt 0.879416 0.196105 0.000000
vt 0.879416 0.890657 0.000000
vt 0.879416 1.000000 0.000000
#end 36 texture vertices

#begin 25 faces
usemtl grid161_XSIPOLYCLS.material21
f 38/70/100 40/72/99 64/96/178 66/98/182 
usemtl grid161_XSIPOLYCLS.material21
f 42/74/104 35/67/103 68/100/186 67/99/184 
usemtl grid161_XSIPOLYCLS.material21
f 36/68/108 43/75/107 65/97/180 63/95/177 
usemtl grid161_XSIPOLYCLS.material21
f 40/72/112 42/74/111 67/99/185 64/96/179 
usemtl grid161_XSIPOLYCLS.material21
f 37/69/116 44/76/115 60/92/163 59/91/161 
usemtl grid161_XSIPOLYCLS.material21
f 43/75/114 38/70/113 66/98/183 65/97/181 
usemtl grid161_XSIPOLYCLS.material21
f 41/73/110 39/71/109 61/93/165 58/90/159 
usemtl grid161_XSIPOLYCLS.material21
f 44/76/106 34/66/105 62/94/166 60/92/162 
usemtl grid161_XSIPOLYCLS.material21
f 33/65/102 41/73/101 58/90/158 57/89/157 
usemtl grid161_XSIPOLYCLS.material21
f 39/71/98 37/69/97 59/91/160 61/93/164 
usemtl grid161_XSIPOLYCLS.material21
f 50/82/120 46/78/119 55/87/118 51/83/117 
usemtl grid161_XSIPOLYCLS.material21
f 49/81/124 48/80/123 53/85/122 52/84/121 
usemtl grid161_XSIPOLYCLS.material21
f 56/88/128 54/86/127 47/79/126 45/77/125 
usemtl grid161_XSIPOLYCLS.material21
f 52/84/132 55/87/131 46/78/130 49/81/129 
usemtl grid161_XSIPOLYCLS.material21
f 45/77/136 50/82/135 51/83/134 56/88/133 
usemtl grid161_XSIPOLYCLS.material21
f 65/97/196 66/98/195 50/82/137 45/77/138 
usemtl grid161_XSIPOLYCLS.material21
f 64/96/194 67/99/193 49/81/139 46/78/140 
usemtl grid161_XSIPOLYCLS.material21
f 63/95/192 65/97/191 45/77/141 47/79/142 
usemtl grid161_XSIPOLYCLS.material21
f 67/99/190 68/100/189 48/80/143 49/81/144 
usemtl grid161_XSIPOLYCLS.material21
f 66/98/188 64/96/187 46/78/145 50/82/146 
usemtl grid161_XSIPOLYCLS.material21
f 61/93/176 59/91/175 51/83/147 55/87/148 
usemtl grid161_XSIPOLYCLS.material21
f 57/89/174 58/90/173 52/84/149 53/85/150 
usemtl grid161_XSIPOLYCLS.material21
f 60/92/172 62/94/171 54/86/151 56/88/152 
usemtl grid161_XSIPOLYCLS.material21
f 58/90/170 61/93/169 55/87/153 52/84/154 
usemtl grid161_XSIPOLYCLS.material21
f 59/91/168 60/92/167 56/88/155 51/83/156 
#end 25 faces
