# XSI Wavefront OBJ Export v3.0
# File Created: Tue Feb 17 10:52:28 2015
# XSI Version: 10.0.422.0
o 10.0.422.0
mtllib Rail_Way_Cross_Road.mtl


# Hierarchy (from self to top father)
g polymsh_detached9

#begin 16 vertices
v -277.432342 45.934736 -512.928433
v -277.432342 102.761659 -512.928433
v -244.872450 102.761659 -512.928433
v -244.872450 45.934736 -512.928433
v -244.872450 45.934736 515.612297
v -277.432342 45.934736 515.612297
v -277.432342 102.761659 515.612297
v -244.872450 102.761659 515.612297
v 223.836621 45.934736 -512.928433
v 223.836621 102.761659 -512.928433
v 256.396513 102.761659 -512.928433
v 256.396513 45.934736 -512.928433
v 256.396513 45.934736 515.612297
v 223.836621 45.934736 515.612297
v 223.836621 102.761659 515.612297
v 256.396513 102.761659 515.612297
#end 16 vertices

#begin 48 normals
vn 0.000000 -0.000000 -1.000000
vn 0.000000 -0.000000 -1.000000
vn 0.000000 -0.000000 -1.000000
vn 0.000000 -0.000000 -1.000000
vn -0.000000 -1.000000 0.000000
vn -0.000000 -1.000000 0.000000
vn -0.000000 -1.000000 0.000000
vn -0.000000 -1.000000 0.000000
vn -1.000000 0.000000 -0.000000
vn -1.000000 0.000000 -0.000000
vn -1.000000 0.000000 -0.000000
vn -1.000000 0.000000 -0.000000
vn 1.000000 0.000000 0.000000
vn 1.000000 0.000000 0.000000
vn 1.000000 0.000000 0.000000
vn 1.000000 0.000000 0.000000
vn 0.000000 1.000000 0.000000
vn 0.000000 1.000000 0.000000
vn 0.000000 1.000000 0.000000
vn 0.000000 1.000000 0.000000
vn 0.000000 0.000000 1.000000
vn 0.000000 0.000000 1.000000
vn 0.000000 0.000000 1.000000
vn 0.000000 0.000000 1.000000
vn 0.000000 -0.000000 -1.000000
vn 0.000000 -0.000000 -1.000000
vn 0.000000 -0.000000 -1.000000
vn 0.000000 -0.000000 -1.000000
vn -0.000000 -1.000000 0.000000
vn -0.000000 -1.000000 0.000000
vn -0.000000 -1.000000 0.000000
vn -0.000000 -1.000000 0.000000
vn -1.000000 0.000000 -0.000000
vn -1.000000 0.000000 -0.000000
vn -1.000000 0.000000 -0.000000
vn -1.000000 0.000000 -0.000000
vn 1.000000 0.000000 0.000000
vn 1.000000 0.000000 0.000000
vn 1.000000 0.000000 0.000000
vn 1.000000 0.000000 0.000000
vn 0.000000 1.000000 0.000000
vn 0.000000 1.000000 0.000000
vn 0.000000 1.000000 0.000000
vn 0.000000 1.000000 0.000000
vn 0.000000 0.000000 1.000000
vn 0.000000 0.000000 1.000000
vn 0.000000 0.000000 1.000000
vn 0.000000 0.000000 1.000000
#end 48 vertex normals

#begin texture vertices
vt 0.991474 0.426135 0.000000
vt 0.955923 0.349621 0.000000
vt 0.958301 0.426135 0.000000
vt 0.955923 0.390091 0.000000
vt 0.955923 0.390091 0.000000
vt 0.958301 0.390993 0.000000
vt 0.991474 0.390993 0.000000
vt 0.955923 0.349621 0.000000
vt 0.012672 0.390993 0.000000
vt 0.044077 0.349621 0.000000
vt 0.044077 0.349621 0.000000
vt 0.012672 0.426135 0.000000
vt 0.041699 0.426135 0.000000
vt 0.044077 0.390091 0.000000
vt 0.044077 0.390091 0.000000
vt 0.041699 0.390993 0.000000
vt 0.991474 0.426135 0.000000
vt 0.955923 0.349621 0.000000
vt 0.958301 0.426135 0.000000
vt 0.955923 0.390091 0.000000
vt 0.955923 0.390091 0.000000
vt 0.958301 0.390993 0.000000
vt 0.991474 0.390993 0.000000
vt 0.955923 0.349621 0.000000
vt 0.012672 0.390993 0.000000
vt 0.044077 0.349621 0.000000
vt 0.044077 0.349621 0.000000
vt 0.012672 0.426135 0.000000
vt 0.041699 0.426135 0.000000
vt 0.044077 0.390091 0.000000
vt 0.044077 0.390091 0.000000
vt 0.041699 0.390993 0.000000
#end 32 texture vertices

#begin 12 faces
usemtl cube10_XSIPOLYCLS.material19
f 1/1/1 2/3/2 3/6/3 4/7/4 
usemtl cube10_XSIPOLYCLS.material19
f 1/1/5 4/7/6 5/9/7 6/12/8 
usemtl cube10_XSIPOLYCLS.material19
f 1/2/9 6/11/10 7/14/11 2/4/12 
usemtl cube10_XSIPOLYCLS.material19
f 4/8/13 3/5/14 8/15/15 5/10/16 
usemtl cube10_XSIPOLYCLS.material19
f 2/3/17 7/13/18 8/16/19 3/6/20 
usemtl cube10_XSIPOLYCLS.material19
f 6/12/21 5/9/22 8/16/23 7/13/24 
usemtl cube10_XSIPOLYCLS.material19
f 9/17/25 10/19/26 11/22/27 12/23/28 
usemtl cube10_XSIPOLYCLS.material19
f 9/17/29 12/23/30 13/25/31 14/28/32 
usemtl cube10_XSIPOLYCLS.material19
f 9/18/33 14/27/34 15/30/35 10/20/36 
usemtl cube10_XSIPOLYCLS.material19
f 12/24/37 11/21/38 16/31/39 13/26/40 
usemtl cube10_XSIPOLYCLS.material19
f 10/19/41 15/29/42 16/32/43 11/22/44 
usemtl cube10_XSIPOLYCLS.material19
f 14/28/45 13/25/46 16/32/47 15/29/48 
#end 12 faces

# Hierarchy (from self to top father)
g Rail_Way_Cross_road

#begin 12 vertices
v -401.724094 6.042683 -512.928433
v -401.724094 6.042683 515.612297
v 402.855228 6.042683 515.612297
v 402.855228 6.042683 -512.928433
v 300.814817 45.273701 515.612297
v 300.814817 45.273701 -512.928433
v -314.850860 45.273701 515.612297
v -314.850860 45.273701 -512.928433
v 512.928433 6.042683 -512.928433
v -512.928433 6.042683 -512.928433
v 512.928433 6.042683 515.612297
v -512.928433 6.042683 515.612297
#end 12 vertices

#begin 20 normals
vn -0.210501 0.977594 -0.000000
vn -0.210501 0.977594 -0.000000
vn -0.210501 0.977594 -0.000000
vn -0.210501 0.977594 -0.000000
vn 0.182493 0.983207 0.000000
vn 0.182493 0.983207 0.000000
vn 0.182493 0.983207 0.000000
vn 0.182493 0.983207 0.000000
vn 0.182493 0.983207 0.000000
vn 0.182493 0.983207 0.000000
vn 0.182493 0.983207 0.000000
vn 0.182493 0.983207 0.000000
vn -0.210501 0.977594 -0.000000
vn -0.210501 0.977594 -0.000000
vn -0.210501 0.977594 -0.000000
vn -0.210501 0.977594 -0.000000
vn 0.000000 1.000000 0.000000
vn -0.000000 1.000000 -0.000000
vn -0.000000 1.000000 -0.000000
vn 0.000000 1.000000 0.000000
#end 20 vertex normals

#begin texture vertices
vt 0.000000 0.110440 0.000000
vt 1.000000 0.110440 0.000000
vt 1.000000 0.890657 0.000000
vt 0.000000 0.890657 0.000000
vt 1.000000 0.806089 0.000000
vt 0.000000 0.806089 0.000000
vt 1.000000 0.196105 0.000000
vt 0.000000 0.196105 0.000000
vt 0.000000 1.000000 0.000000
vt 0.000000 0.000000 0.000000
vt 1.000000 1.000000 0.000000
vt 1.000000 0.000000 0.000000
#end 12 texture vertices

#begin 5 faces
usemtl grid160_XSIPOLYCLS.material20
f 23/39/61 24/40/62 17/33/49 18/34/50 
usemtl grid160_XSIPOLYCLS.material20
f 22/38/60 21/37/59 19/35/53 20/36/54 
usemtl grid160_XSIPOLYCLS.material20
f 24/40/64 23/39/63 21/37/57 22/38/58 
usemtl grid160_XSIPOLYCLS.material20
f 26/42/67 28/44/66 18/34/52 17/33/51 
usemtl grid160_XSIPOLYCLS.material20
f 25/41/68 20/36/56 19/35/55 27/43/65 
#end 5 faces
