# XSI Wavefront OBJ Export v3.0
# File Created: Sun Jan 17 18:20:36 2016
# XSI Version: 10.0.422.0
mtllib Bullet.mtl

o Bullet
# Hierarchy (from self to top father)
g Bullet

#begin 82 vertices
v 0.003857 -0.003857 -3.039097
v 0.001070 0.001070 -0.059239
v 0.062340 0.062311 -0.310046
v -0.061929 0.062311 -0.310221
v -0.061929 -0.061958 -0.310400
v 0.062340 -0.061958 -0.310227
v 0.015298 -0.015298 -2.747412
v -0.062950 0.062950 -0.625152
v 0.000403 -0.084873 -0.625152
v 0.048165 -0.048165 -1.309103
v 0.000403 0.084067 -0.625152
v 0.015298 0.008419 -2.747412
v -0.062950 -0.063756 -0.625152
v -0.084067 -0.000403 -0.625152
v 0.048165 0.045402 -1.309103
v 0.084873 -0.000403 -0.625152
v -0.008419 0.008419 -2.747412
v 0.063756 -0.063756 -0.625152
v -0.069139 -0.001036 -1.067709
v -0.045402 0.045402 -1.309103
v -0.020283 -0.003108 -2.516076
v -0.006712 -0.003684 -2.918400
v -0.045402 -0.048165 -1.309103
v 0.001036 0.069139 -1.067709
v 0.063756 0.062950 -0.625152
v -0.008419 -0.015298 -2.747412
v -0.067079 -0.067424 -0.464222
v -0.067079 0.067079 -0.464222
v 0.067424 0.067079 -0.464222
v 0.067424 -0.067424 -0.464222
v 0.000167 -0.085306 -0.319114
v -0.069143 -0.069258 -0.383758
v 0.000173 -0.089841 -0.464222
v 0.069258 -0.069258 -0.383758
v 0.010239 0.002756 -2.958632
v 0.019669 -0.003425 -2.737354
v 0.010239 -0.010239 -2.958632
v 0.000167 0.085583 -0.318888
v 0.069258 0.069143 -0.383758
v 0.000173 0.089496 -0.464222
v -0.069143 0.069143 -0.383758
v -0.085278 0.000138 -0.319111
v -0.089496 -0.000173 -0.464222
v -0.038222 0.039750 -0.138005
v 0.039750 0.039750 -0.137865
v -0.038222 -0.038222 -0.138144
v 0.039750 -0.038222 -0.138005
v 0.085612 0.000138 -0.318891
v 0.003425 -0.019669 -2.737354
v -0.002756 -0.010239 -2.958632
v 0.020652 -0.020652 -2.516076
v 0.000058 -0.092325 -0.383758
v -0.014435 -0.020652 -2.516076
v 0.003108 0.020283 -2.516076
v 0.003684 0.006712 -2.918400
v 0.092325 -0.000058 -0.383758
v 0.071211 -0.001036 -1.067709
v 0.001382 -0.063759 -1.309103
v 0.026500 -0.003108 -2.516076
v 0.053668 -0.053668 -1.067709
v 0.001036 -0.071211 -1.067709
v -0.051595 -0.053668 -1.067709
v -0.060996 -0.001382 -1.309103
v 0.020652 0.014435 -2.516076
v 0.003108 -0.026500 -2.516076
v 0.003684 -0.014080 -2.918400
v 0.063759 -0.001382 -1.309103
v 0.062989 0.000611 -0.179697
v 0.000611 -0.061767 -0.179976
v 0.053668 0.051595 -1.067709
v 0.089841 -0.000173 -0.464222
v -0.002756 0.002756 -2.958632
v 0.003425 0.012819 -2.737354
v -0.014435 0.014435 -2.516076
v 0.014080 -0.003684 -2.918400
v -0.061767 0.000611 -0.179976
v 0.000611 0.062989 -0.179697
v -0.092210 -0.000058 -0.383758
v 0.001382 0.060996 -1.309103
v -0.051595 0.051595 -1.067709
v 0.000058 0.092210 -0.383758
v -0.012819 -0.003425 -2.737354
#end 82 vertices

#begin 320 normals
vn 0.998231 -0.000016 -0.059460
vn 0.705747 -0.705747 -0.061999
vn 0.705755 -0.705755 -0.061799
vn 0.998247 -0.000016 -0.059188
vn 0.705607 0.705536 -0.065861
vn 0.998231 -0.000016 -0.059460
vn 0.998247 -0.000016 -0.059188
vn 0.705617 0.705545 -0.065662
vn 0.000016 -0.998247 -0.059188
vn 0.000016 -0.998247 -0.059188
vn -0.705545 -0.705617 -0.065662
vn -0.705545 -0.705617 -0.065662
vn 0.705755 -0.705755 -0.061799
vn 0.000016 -0.998247 -0.059188
vn 0.000016 -0.998247 -0.059188
vn 0.705755 -0.705755 -0.061799
vn 0.000018 0.997908 -0.064653
vn 0.000018 0.997908 -0.064653
vn 0.705617 0.705545 -0.065662
vn 0.705617 0.705545 -0.065662
vn -0.705396 0.705396 -0.069522
vn 0.000018 0.997908 -0.064653
vn 0.000018 0.997908 -0.064653
vn -0.705396 0.705396 -0.069522
vn 0.705755 -0.705755 -0.061799
vn 0.998247 -0.000016 -0.059188
vn 0.998247 -0.000016 -0.059188
vn 0.705755 -0.705755 -0.061799
vn 0.705617 0.705545 -0.065662
vn 0.705617 0.705545 -0.065662
vn 0.998247 -0.000016 -0.059188
vn 0.998247 -0.000016 -0.059188
vn -0.997908 -0.000018 -0.064653
vn -0.997908 -0.000018 -0.064653
vn -0.705396 0.705396 -0.069522
vn -0.705396 0.705396 -0.069522
vn -0.705545 -0.705617 -0.065662
vn -0.997908 -0.000018 -0.064653
vn -0.997908 -0.000018 -0.064653
vn -0.705545 -0.705617 -0.065662
vn 0.000016 -0.998231 -0.059460
vn -0.705536 -0.705607 -0.065861
vn -0.705545 -0.705617 -0.065662
vn 0.000016 -0.998247 -0.059188
vn 0.705747 -0.705747 -0.061999
vn 0.000016 -0.998231 -0.059460
vn 0.000016 -0.998247 -0.059188
vn 0.705755 -0.705755 -0.061799
vn 0.998247 -0.000016 -0.059188
vn 0.998247 -0.000016 -0.059188
vn 0.705755 -0.705755 -0.061799
vn 0.705755 -0.705755 -0.061799
vn 0.705617 0.705545 -0.065662
vn 0.998247 -0.000016 -0.059188
vn 0.998247 -0.000016 -0.059188
vn 0.705617 0.705545 -0.065662
vn 0.000016 -0.998247 -0.059188
vn -0.705545 -0.705617 -0.065662
vn -0.705545 -0.705617 -0.065662
vn 0.000016 -0.998247 -0.059188
vn 0.000016 -0.998247 -0.059188
vn 0.705755 -0.705755 -0.061799
vn 0.705755 -0.705755 -0.061799
vn 0.000016 -0.998247 -0.059188
vn 0.000018 0.997908 -0.064653
vn -0.705396 0.705396 -0.069522
vn -0.705386 0.705386 -0.069721
vn 0.000018 0.997890 -0.064924
vn -0.997908 -0.000018 -0.064653
vn -0.705545 -0.705617 -0.065662
vn -0.705536 -0.705607 -0.065861
vn -0.997890 -0.000018 -0.064924
vn -0.997908 -0.000018 -0.064653
vn -0.997908 -0.000018 -0.064653
vn -0.705545 -0.705617 -0.065662
vn -0.705545 -0.705617 -0.065662
vn -0.705396 0.705396 -0.069522
vn -0.997908 -0.000018 -0.064653
vn -0.997908 -0.000018 -0.064653
vn -0.705396 0.705396 -0.069522
vn -0.705396 0.705396 -0.069522
vn -0.705396 0.705396 -0.069522
vn 0.000018 0.997908 -0.064653
vn 0.000018 0.997908 -0.064653
vn 0.000018 0.997908 -0.064653
vn 0.000018 0.997908 -0.064653
vn 0.705617 0.705545 -0.065662
vn 0.705617 0.705545 -0.065662
vn -0.705396 0.705396 -0.069522
vn -0.997908 -0.000018 -0.064653
vn -0.997890 -0.000018 -0.064924
vn -0.705386 0.705386 -0.069721
vn 0.000018 0.997890 -0.064924
vn 0.705607 0.705536 -0.065861
vn 0.705617 0.705545 -0.065662
vn 0.000018 0.997908 -0.064653
vn -0.705545 -0.705617 -0.065662
vn -0.705545 -0.705617 -0.065662
vn -0.997908 -0.000018 -0.064653
vn -0.997908 -0.000018 -0.064653
vn -0.705396 0.705396 -0.069522
vn -0.997908 -0.000018 -0.064653
vn -0.997908 -0.000018 -0.064653
vn -0.705396 0.705396 -0.069522
vn -0.997816 -0.000020 -0.066054
vn -0.997890 -0.000018 -0.064924
vn -0.705536 -0.705607 -0.065861
vn -0.705511 -0.705580 -0.066409
vn -0.705386 0.705386 -0.069721
vn -0.997890 -0.000018 -0.064924
vn -0.997816 -0.000020 -0.066054
vn -0.705359 0.705359 -0.070269
vn 0.705755 -0.705755 -0.061799
vn 0.998247 -0.000016 -0.059188
vn 0.998247 -0.000016 -0.059188
vn 0.705755 -0.705755 -0.061799
vn 0.705617 0.705545 -0.065662
vn 0.705617 0.705545 -0.065662
vn 0.998247 -0.000016 -0.059188
vn 0.998247 -0.000016 -0.059188
vn 0.678570 -0.678210 0.282089
vn -0.000053 -0.960926 0.276804
vn -0.000003 -0.996405 0.084718
vn 0.704493 -0.704289 0.087556
vn -0.677092 -0.677067 0.288316
vn -0.704346 -0.704346 0.088280
vn -0.000003 -0.996405 0.084718
vn -0.000053 -0.960926 0.276804
vn -0.705545 -0.705617 -0.065662
vn 0.000016 -0.998247 -0.059188
vn -0.000003 -0.996405 0.084718
vn -0.704346 -0.704346 0.088280
vn 0.705755 -0.705755 -0.061799
vn 0.704493 -0.704289 0.087556
vn -0.000003 -0.996405 0.084718
vn 0.000016 -0.998247 -0.059188
vn 0.987023 0.000000 -0.160582
vn 0.700458 0.700151 -0.138374
vn 0.995386 -0.000013 -0.095953
vn 0.700672 -0.700672 -0.134605
vn 0.705580 0.705511 -0.066409
vn 0.998163 -0.000018 -0.060590
vn 0.995386 -0.000013 -0.095953
vn 0.700458 0.700151 -0.138374
vn 0.705722 -0.705722 -0.062547
vn 0.700672 -0.700672 -0.134605
vn 0.995386 -0.000013 -0.095953
vn 0.998163 -0.000018 -0.060590
vn -0.678574 0.678932 0.280336
vn -0.000056 0.964148 0.265364
vn -0.000004 0.997109 0.075987
vn -0.704620 0.704821 0.082086
vn 0.680019 0.680042 0.274075
vn 0.704764 0.704760 0.081365
vn -0.000004 0.997109 0.075987
vn -0.000056 0.964148 0.265364
vn 0.705617 0.705545 -0.065662
vn 0.000018 0.997908 -0.064653
vn -0.000004 0.997109 0.075987
vn 0.704764 0.704760 0.081365
vn -0.705396 0.705396 -0.069522
vn -0.704620 0.704821 0.082086
vn -0.000004 0.997109 0.075987
vn 0.000018 0.997908 -0.064653
vn -0.677092 -0.677067 0.288316
vn -0.961283 0.000004 0.275562
vn -0.996727 0.000019 0.080844
vn -0.704346 -0.704346 0.088280
vn -0.678574 0.678932 0.280336
vn -0.704620 0.704821 0.082086
vn -0.996727 0.000019 0.080844
vn -0.961283 0.000004 0.275562
vn -0.705396 0.705396 -0.069522
vn -0.997908 -0.000018 -0.064653
vn -0.996727 0.000019 0.080844
vn -0.704620 0.704821 0.082086
vn -0.705545 -0.705617 -0.065662
vn -0.704346 -0.704346 0.088280
vn -0.996727 0.000019 0.080844
vn -0.997908 -0.000018 -0.064653
vn 0.680019 0.680042 0.274075
vn -0.000056 0.964148 0.265364
vn -0.000290 0.887801 0.460227
vn 0.571893 0.571883 0.588123
vn -0.678574 0.678932 0.280336
vn -0.569123 0.570193 0.592435
vn -0.000290 0.887801 0.460227
vn -0.000056 0.964148 0.265364
vn -0.000654 0.711606 0.702578
vn 0.571893 0.571883 0.588123
vn -0.000290 0.887801 0.460227
vn -0.569123 0.570193 0.592435
vn -0.677092 -0.677067 0.288316
vn -0.567322 -0.567331 0.596893
vn -0.883329 -0.000266 0.468754
vn -0.961283 0.000004 0.275562
vn -0.408604 -0.408604 0.816140
vn -0.569123 0.570193 0.592435
vn -0.883329 -0.000266 0.468754
vn -0.567322 -0.567331 0.596893
vn -0.678574 0.678932 0.280336
vn -0.961283 0.000004 0.275562
vn -0.883329 -0.000266 0.468754
vn -0.569123 0.570193 0.592435
vn 0.678570 -0.678210 0.282089
vn 0.570095 -0.569024 0.592624
vn -0.000290 -0.883238 0.468926
vn -0.000053 -0.960926 0.276804
vn -0.408604 -0.408604 0.816140
vn -0.567322 -0.567331 0.596893
vn -0.000290 -0.883238 0.468926
vn 0.570095 -0.569024 0.592624
vn -0.677092 -0.677067 0.288316
vn -0.000053 -0.960926 0.276804
vn -0.000290 -0.883238 0.468926
vn -0.567322 -0.567331 0.596893
vn 0.680019 0.680042 0.274075
vn 0.571893 0.571883 0.588123
vn 0.887711 -0.000267 0.460401
vn 0.963804 0.000000 0.266612
vn 0.711606 -0.000654 0.702578
vn 0.570095 -0.569024 0.592624
vn 0.887711 -0.000267 0.460401
vn 0.571893 0.571883 0.588123
vn 0.678570 -0.678210 0.282089
vn 0.963804 0.000000 0.266612
vn 0.887711 -0.000267 0.460401
vn 0.570095 -0.569024 0.592624
vn -0.000000 -0.987023 -0.160582
vn 0.700672 -0.700672 -0.134605
vn 0.000013 -0.995386 -0.095953
vn -0.700151 -0.700458 -0.138374
vn 0.705722 -0.705722 -0.062547
vn 0.000018 -0.998163 -0.060590
vn 0.000013 -0.995386 -0.095953
vn 0.700672 -0.700672 -0.134605
vn -0.705511 -0.705580 -0.066409
vn -0.700151 -0.700458 -0.138374
vn 0.000013 -0.995386 -0.095953
vn 0.000018 -0.998163 -0.060590
vn -0.705511 -0.705580 -0.066409
vn 0.000018 -0.998163 -0.060590
vn 0.000016 -0.998231 -0.059460
vn -0.705536 -0.705607 -0.065861
vn 0.705722 -0.705722 -0.062547
vn 0.705747 -0.705747 -0.061999
vn 0.000016 -0.998231 -0.059460
vn 0.000018 -0.998163 -0.060590
vn 0.680019 0.680042 0.274075
vn 0.963804 0.000000 0.266612
vn 0.996806 0.000018 0.079864
vn 0.704764 0.704760 0.081365
vn 0.678570 -0.678210 0.282089
vn 0.704493 -0.704289 0.087556
vn 0.996806 0.000018 0.079864
vn 0.963804 0.000000 0.266612
vn -0.997816 -0.000020 -0.066054
vn -0.994850 -0.000014 -0.101357
vn -0.699927 0.699927 -0.142138
vn -0.705359 0.705359 -0.070269
vn -0.700151 -0.700458 -0.138374
vn -0.994850 -0.000014 -0.101357
vn -0.997816 -0.000020 -0.066054
vn -0.705511 -0.705580 -0.066409
vn -0.699927 0.699927 -0.142138
vn -0.994850 -0.000014 -0.101357
vn -0.700151 -0.700458 -0.138374
vn -0.986149 -0.000000 -0.165860
vn 0.000018 0.997908 -0.064653
vn 0.000018 0.997908 -0.064653
vn -0.705396 0.705396 -0.069522
vn -0.705396 0.705396 -0.069522
vn 0.705617 0.705545 -0.065662
vn 0.000018 0.997908 -0.064653
vn 0.000018 0.997908 -0.064653
vn 0.705617 0.705545 -0.065662
vn 0.705755 -0.705755 -0.061799
vn 0.998247 -0.000016 -0.059188
vn 0.996806 0.000018 0.079864
vn 0.704493 -0.704289 0.087556
vn 0.705617 0.705545 -0.065662
vn 0.704764 0.704760 0.081365
vn 0.996806 0.000018 0.079864
vn 0.998247 -0.000016 -0.059188
vn 0.000020 0.997816 -0.066054
vn 0.000018 0.997890 -0.064924
vn -0.705386 0.705386 -0.069721
vn -0.705359 0.705359 -0.070269
vn -0.705545 -0.705617 -0.065662
vn 0.000016 -0.998247 -0.059188
vn 0.000016 -0.998247 -0.059188
vn -0.705545 -0.705617 -0.065662
vn 0.705755 -0.705755 -0.061799
vn 0.705755 -0.705755 -0.061799
vn 0.000016 -0.998247 -0.059188
vn 0.000016 -0.998247 -0.059188
vn 0.705607 0.705536 -0.065861
vn 0.000018 0.997890 -0.064924
vn 0.000020 0.997816 -0.066054
vn 0.705580 0.705511 -0.066409
vn 0.000020 0.997816 -0.066054
vn 0.000014 0.994850 -0.101357
vn 0.700458 0.700151 -0.138374
vn 0.705580 0.705511 -0.066409
vn 0.000000 0.986149 -0.165860
vn -0.699927 0.699927 -0.142138
vn 0.000014 0.994850 -0.101357
vn 0.700458 0.700151 -0.138374
vn -0.705359 0.705359 -0.070269
vn 0.000020 0.997816 -0.066054
vn 0.000014 0.994850 -0.101357
vn -0.699927 0.699927 -0.142138
vn 0.705722 -0.705722 -0.062547
vn 0.998163 -0.000018 -0.060590
vn 0.998231 -0.000016 -0.059460
vn 0.705747 -0.705747 -0.061999
vn 0.705580 0.705511 -0.066409
vn 0.705607 0.705536 -0.065861
vn 0.998231 -0.000016 -0.059460
vn 0.998163 -0.000018 -0.060590
#end 320 vertex normals

#begin texture vertices
vt 0.766924 0.338684 0.000000
vt 0.992068 0.338415 0.000000
vt 0.968199 0.349114 0.000000
vt 0.968199 0.327287 0.000000
vt 0.968199 0.327287 0.000000
vt 0.968199 0.349114 0.000000
vt 0.968199 0.327287 0.000000
vt 0.968199 0.349114 0.000000
vt 0.800470 0.340422 0.000000
vt 0.948630 0.328395 0.000000
vt 0.948630 0.338248 0.000000
vt 0.901107 0.345637 0.000000
vt 0.948630 0.338248 0.000000
vt 0.800470 0.336785 0.000000
vt 0.800470 0.340422 0.000000
vt 0.948630 0.328395 0.000000
vt 0.948630 0.348100 0.000000
vt 0.948630 0.338248 0.000000
vt 0.901107 0.345637 0.000000
vt 0.901107 0.331086 0.000000
vt 0.948630 0.338248 0.000000
vt 0.800470 0.336785 0.000000
vt 0.948630 0.348100 0.000000
vt 0.917880 0.338322 0.000000
vt 0.901107 0.331086 0.000000
vt 0.817243 0.338563 0.000000
vt 0.789288 0.338630 0.000000
vt 0.901107 0.331086 0.000000
vt 0.901107 0.345637 0.000000
vt 0.917880 0.338322 0.000000
vt 0.948630 0.348100 0.000000
vt 0.948630 0.328395 0.000000
vt 0.800470 0.340422 0.000000
vt 0.800470 0.336785 0.000000
vt 0.962608 0.327604 0.000000
vt 0.962608 0.348824 0.000000
vt 0.962608 0.327604 0.000000
vt 0.962608 0.348824 0.000000
vt 0.962608 0.327604 0.000000
vt 0.962608 0.348824 0.000000
vt 0.968199 0.338201 0.000000
vt 0.965403 0.327446 0.000000
vt 0.965403 0.348969 0.000000
vt 0.962608 0.338214 0.000000
vt 0.965403 0.348969 0.000000
vt 0.783697 0.337734 0.000000
vt 0.783697 0.339553 0.000000
vt 0.800470 0.338603 0.000000
vt 0.783697 0.339553 0.000000
vt 0.968199 0.338201 0.000000
vt 0.965403 0.348969 0.000000
vt 0.965403 0.327446 0.000000
vt 0.962608 0.338214 0.000000
vt 0.965403 0.327446 0.000000
vt 0.968199 0.338201 0.000000
vt 0.962608 0.338214 0.000000
vt 0.980133 0.332851 0.000000
vt 0.980133 0.332851 0.000000
vt 0.980133 0.343764 0.000000
vt 0.980133 0.332851 0.000000
vt 0.980133 0.343764 0.000000
vt 0.980133 0.343764 0.000000
vt 0.968199 0.338201 0.000000
vt 0.800470 0.338603 0.000000
vt 0.783697 0.339553 0.000000
vt 0.783697 0.337734 0.000000
vt 0.817243 0.341292 0.000000
vt 0.965403 0.338207 0.000000
vt 0.817243 0.341292 0.000000
vt 0.817243 0.335835 0.000000
vt 0.817243 0.338563 0.000000
vt 0.789288 0.338630 0.000000
vt 0.965403 0.338207 0.000000
vt 0.917880 0.338322 0.000000
vt 0.901107 0.338362 0.000000
vt 0.817243 0.338563 0.000000
vt 0.917880 0.346507 0.000000
vt 0.917880 0.338322 0.000000
vt 0.917880 0.346506 0.000000
vt 0.917880 0.330137 0.000000
vt 0.901107 0.338362 0.000000
vt 0.817243 0.335835 0.000000
vt 0.817243 0.341292 0.000000
vt 0.817243 0.338563 0.000000
vt 0.789288 0.338630 0.000000
vt 0.901107 0.338362 0.000000
vt 0.976155 0.338272 0.000000
vt 0.976155 0.338272 0.000000
vt 0.917880 0.330137 0.000000
vt 0.917880 0.346507 0.000000
vt 0.962608 0.338214 0.000000
vt 0.783697 0.337734 0.000000
vt 0.800470 0.338603 0.000000
vt 0.817243 0.335835 0.000000
vt 0.789288 0.338630 0.000000
vt 0.976155 0.338272 0.000000
vt 0.976155 0.338272 0.000000
vt 0.965403 0.338207 0.000000
vt 0.901107 0.338362 0.000000
vt 0.917880 0.330137 0.000000
vt 0.965403 0.338207 0.000000
vt 0.800470 0.338603 0.000000
#end 102 texture vertices

#begin 80 faces
usemtl material
f 67/86/4 10/12/3 51/67/2 59/76/1 
usemtl material
f 15/20/8 67/86/7 59/76/6 64/82/5 
usemtl material
f 27/35/12 13/16/11 9/11/10 33/44/9 
usemtl material
f 30/40/16 33/44/15 9/11/14 18/23/13 
usemtl material
f 29/38/20 25/31/19 11/13/18 40/53/17 
usemtl material
f 28/37/24 40/53/23 11/13/22 8/10/21 
usemtl material
f 60/77/28 57/74/27 16/21/26 18/23/25 
usemtl material
f 16/21/32 57/74/31 70/89/30 25/32/29 
usemtl material
f 28/37/36 8/10/35 14/18/34 43/56/33 
usemtl material
f 27/36/40 43/56/39 14/18/38 13/17/37 
usemtl material
f 58/75/44 23/28/43 53/70/42 65/84/41 
usemtl material
f 10/12/48 58/75/47 65/84/46 51/67/45 
usemtl material
f 30/40/52 18/23/51 16/21/50 71/91/49 
usemtl material
f 29/39/56 71/91/55 16/21/54 25/32/53 
usemtl material
f 9/11/60 13/16/59 62/80/58 61/78/57 
usemtl material
f 61/78/64 60/77/63 18/23/62 9/11/61 
usemtl material
f 54/71/68 74/94/67 20/25/66 79/99/65 
usemtl material
f 21/26/72 53/69/71 23/29/70 63/81/69 
usemtl material
f 23/29/76 62/79/75 19/24/74 63/81/73 
usemtl material
f 20/25/80 63/81/79 19/24/78 80/100/77 
usemtl material
f 11/13/84 24/30/83 80/100/82 8/10/81 
usemtl material
f 25/31/88 70/90/87 24/30/86 11/13/85 
usemtl material
f 74/94/92 21/26/91 63/81/90 20/25/89 
usemtl material
f 79/99/96 15/19/95 64/83/94 54/71/93 
usemtl material
f 14/18/100 19/24/99 62/79/98 13/17/97 
usemtl material
f 80/100/104 19/24/103 14/18/102 8/10/101 
usemtl material
f 17/22/260 72/92/259 22/27/258 82/102/257 
usemtl material
f 26/33/264 82/102/263 22/27/262 50/65/261 
usemtl material
f 10/12/113 67/86/114 57/74/115 60/77/116 
usemtl material
f 15/20/117 70/89/118 57/74/119 67/86/120 
usemtl material
f 26/33/108 53/69/107 21/26/106 82/102/105 
usemtl material
f 17/22/112 82/102/111 21/26/110 74/94/109 
usemtl material
f 6/8/121 31/41/122 52/68/123 34/45/124 
usemtl material
f 5/7/125 32/42/126 52/68/127 31/41/128 
usemtl material
f 27/35/129 33/44/130 52/68/131 32/42/132 
usemtl material
f 30/40/133 34/45/134 52/68/135 33/44/136 
usemtl material
f 1/1/137 35/46/138 75/95/139 37/49/140 
usemtl material
f 12/14/141 36/48/142 75/95/143 35/46/144 
usemtl material
f 7/9/145 37/49/146 75/95/147 36/48/148 
usemtl material
f 4/5/149 38/50/150 81/101/151 41/54/152 
usemtl material
f 3/3/153 39/51/154 81/101/155 38/50/156 
usemtl material
f 29/38/157 40/53/158 81/101/159 39/51/160 
usemtl material
f 28/37/161 41/54/162 81/101/163 40/53/164 
usemtl material
f 5/6/165 42/55/166 78/98/167 32/43/168 
usemtl material
f 4/5/169 41/54/170 78/98/171 42/55/172 
usemtl material
f 28/37/173 43/56/174 78/98/175 41/54/176 
usemtl material
f 27/36/177 32/43/178 78/98/179 43/56/180 
usemtl material
f 3/3/181 38/50/182 77/97/183 45/59/184 
usemtl material
f 4/5/185 44/57/186 77/97/187 38/50/188 
usemtl material
f 2/2/189 45/59/190 77/97/191 44/57/192 
usemtl material
f 5/6/193 46/61/194 76/96/195 42/55/196 
usemtl material
f 2/2/197 44/57/198 76/96/199 46/61/200 
usemtl material
f 4/5/201 42/55/202 76/96/203 44/57/204 
usemtl material
f 6/8/205 47/62/206 69/88/207 31/41/208 
usemtl material
f 2/2/209 46/60/210 69/88/211 47/62/212 
usemtl material
f 5/7/213 31/41/214 69/88/215 46/60/216 
usemtl material
f 3/4/217 45/58/218 68/87/219 48/63/220 
usemtl material
f 2/2/221 47/62/222 68/87/223 45/58/224 
usemtl material
f 6/8/225 48/63/226 68/87/227 47/62/228 
usemtl material
f 1/1/229 37/49/230 66/85/231 50/66/232 
usemtl material
f 7/9/233 49/64/234 66/85/235 37/49/236 
usemtl material
f 26/34/237 50/66/238 66/85/239 49/64/240 
usemtl material
f 26/34/241 49/64/242 65/84/243 53/70/244 
usemtl material
f 7/9/245 51/67/246 65/84/247 49/64/248 
usemtl material
f 3/4/249 48/63/250 56/73/251 39/52/252 
usemtl material
f 6/8/253 34/45/254 56/73/255 48/63/256 
usemtl material
f 1/1/268 50/65/267 22/27/266 72/92/265 
usemtl material
f 20/25/272 80/100/271 24/30/270 79/99/269 
usemtl material
f 15/19/276 79/99/275 24/30/274 70/90/273 
usemtl material
f 30/40/277 71/91/278 56/73/279 34/45/280 
usemtl material
f 29/39/281 39/52/282 56/73/283 71/91/284 
usemtl material
f 17/22/288 74/94/287 54/71/286 73/93/285 
usemtl material
f 12/15/300 73/93/299 54/71/298 64/83/297 
usemtl material
f 12/15/304 35/47/303 55/72/302 73/93/301 
usemtl material
f 23/28/289 58/75/290 61/78/291 62/80/292 
usemtl material
f 10/12/293 60/77/294 61/78/295 58/75/296 
usemtl material
f 17/22/309 73/93/310 55/72/311 72/92/312 
usemtl material
f 1/1/305 72/92/306 55/72/307 35/47/308 
usemtl material
f 12/14/317 64/82/318 59/76/319 36/48/320 
usemtl material
f 7/9/313 36/48/314 59/76/315 51/67/316 
#end 80 faces
